%TF.GenerationSoftware,KiCad,Pcbnew,(5.1.9)-1*%
%TF.CreationDate,2021-05-01T20:45:07-06:00*%
%TF.ProjectId,decoder,6465636f-6465-4722-9e6b-696361645f70,rev?*%
%TF.SameCoordinates,Original*%
%TF.FileFunction,Legend,Top*%
%TF.FilePolarity,Positive*%
%FSLAX46Y46*%
G04 Gerber Fmt 4.6, Leading zero omitted, Abs format (unit mm)*
G04 Created by KiCad (PCBNEW (5.1.9)-1) date 2021-05-01 20:45:07*
%MOMM*%
%LPD*%
G01*
G04 APERTURE LIST*
%ADD10C,0.150000*%
%ADD11C,0.120000*%
G04 APERTURE END LIST*
D10*
X81282712Y-107137323D02*
X80473188Y-107137323D01*
X80377950Y-107184942D01*
X80330331Y-107232561D01*
X80282712Y-107327799D01*
X80282712Y-107518275D01*
X80330331Y-107613513D01*
X80377950Y-107661132D01*
X80473188Y-107708751D01*
X81282712Y-107708751D01*
X80330331Y-108137323D02*
X80282712Y-108280180D01*
X80282712Y-108518275D01*
X80330331Y-108613513D01*
X80377950Y-108661132D01*
X80473188Y-108708751D01*
X80568426Y-108708751D01*
X80663664Y-108661132D01*
X80711283Y-108613513D01*
X80758902Y-108518275D01*
X80806521Y-108327799D01*
X80854140Y-108232561D01*
X80901759Y-108184942D01*
X80996997Y-108137323D01*
X81092235Y-108137323D01*
X81187473Y-108184942D01*
X81235093Y-108232561D01*
X81282712Y-108327799D01*
X81282712Y-108565894D01*
X81235093Y-108708751D01*
X80806521Y-109470656D02*
X80758902Y-109613513D01*
X80711283Y-109661132D01*
X80616045Y-109708751D01*
X80473188Y-109708751D01*
X80377950Y-109661132D01*
X80330331Y-109613513D01*
X80282712Y-109518275D01*
X80282712Y-109137323D01*
X81282712Y-109137323D01*
X81282712Y-109470656D01*
X81235093Y-109565894D01*
X81187473Y-109613513D01*
X81092235Y-109661132D01*
X80996997Y-109661132D01*
X80901759Y-109613513D01*
X80854140Y-109565894D01*
X80806521Y-109470656D01*
X80806521Y-109137323D01*
X80282712Y-110899228D02*
X81282712Y-110899228D01*
X81282712Y-111280180D01*
X81235093Y-111375418D01*
X81187473Y-111423037D01*
X81092235Y-111470656D01*
X80949378Y-111470656D01*
X80854140Y-111423037D01*
X80806521Y-111375418D01*
X80758902Y-111280180D01*
X80758902Y-110899228D01*
X80282712Y-112042085D02*
X80330331Y-111946847D01*
X80377950Y-111899228D01*
X80473188Y-111851608D01*
X80758902Y-111851608D01*
X80854140Y-111899228D01*
X80901759Y-111946847D01*
X80949378Y-112042085D01*
X80949378Y-112184942D01*
X80901759Y-112280180D01*
X80854140Y-112327799D01*
X80758902Y-112375418D01*
X80473188Y-112375418D01*
X80377950Y-112327799D01*
X80330331Y-112280180D01*
X80282712Y-112184942D01*
X80282712Y-112042085D01*
X80282712Y-112803989D02*
X80949378Y-112803989D01*
X80758902Y-112803989D02*
X80854140Y-112851608D01*
X80901759Y-112899228D01*
X80949378Y-112994466D01*
X80949378Y-113089704D01*
X80949378Y-113280180D02*
X80949378Y-113661132D01*
X81282712Y-113423037D02*
X80425569Y-113423037D01*
X80330331Y-113470656D01*
X80282712Y-113565894D01*
X80282712Y-113661132D01*
X80282712Y-114756370D02*
X81282712Y-114756370D01*
X80806521Y-114756370D02*
X80806521Y-115327799D01*
X80282712Y-115327799D02*
X81282712Y-115327799D01*
X80330331Y-116184942D02*
X80282712Y-116089704D01*
X80282712Y-115899228D01*
X80330331Y-115803989D01*
X80425569Y-115756370D01*
X80806521Y-115756370D01*
X80901759Y-115803989D01*
X80949378Y-115899228D01*
X80949378Y-116089704D01*
X80901759Y-116184942D01*
X80806521Y-116232561D01*
X80711283Y-116232561D01*
X80616045Y-115756370D01*
X80282712Y-116661132D02*
X80949378Y-116661132D01*
X80758902Y-116661132D02*
X80854140Y-116708751D01*
X80901759Y-116756370D01*
X80949378Y-116851608D01*
X80949378Y-116946847D01*
X80330331Y-117661132D02*
X80282712Y-117565894D01*
X80282712Y-117375418D01*
X80330331Y-117280180D01*
X80425569Y-117232561D01*
X80806521Y-117232561D01*
X80901759Y-117280180D01*
X80949378Y-117375418D01*
X80949378Y-117565894D01*
X80901759Y-117661132D01*
X80806521Y-117708751D01*
X80711283Y-117708751D01*
X80616045Y-117232561D01*
X122062086Y-118927089D02*
X121966848Y-118879469D01*
X121823991Y-118879469D01*
X121681133Y-118927089D01*
X121585895Y-119022327D01*
X121538276Y-119117565D01*
X121490657Y-119308041D01*
X121490657Y-119450898D01*
X121538276Y-119641374D01*
X121585895Y-119736612D01*
X121681133Y-119831850D01*
X121823991Y-119879469D01*
X121919229Y-119879469D01*
X122062086Y-119831850D01*
X122109705Y-119784231D01*
X122109705Y-119450898D01*
X121919229Y-119450898D01*
X122538276Y-119879469D02*
X122538276Y-118879469D01*
X123109705Y-119879469D01*
X123109705Y-118879469D01*
X123585895Y-119879469D02*
X123585895Y-118879469D01*
X123823991Y-118879469D01*
X123966848Y-118927089D01*
X124062086Y-119022327D01*
X124109705Y-119117565D01*
X124157324Y-119308041D01*
X124157324Y-119450898D01*
X124109705Y-119641374D01*
X124062086Y-119736612D01*
X123966848Y-119831850D01*
X123823991Y-119879469D01*
X123585895Y-119879469D01*
D11*
%TO.C,DS1*%
X78205001Y-94560001D02*
X78205001Y-69560001D01*
X151205001Y-94560001D02*
X78205001Y-94560001D01*
X151205001Y-69560001D02*
X151205001Y-94560001D01*
X78205001Y-69560001D02*
X151205001Y-69560001D01*
X147405001Y-75060001D02*
X147405001Y-89060001D01*
X146905661Y-89560001D02*
X83405001Y-89560001D01*
X82905281Y-89059321D02*
X82905281Y-75060001D01*
X83405001Y-74560001D02*
X146905001Y-74560001D01*
X81705001Y-63560001D02*
X84705001Y-63560001D01*
X75075001Y-63920001D02*
X75865001Y-63920001D01*
X75065001Y-63920001D02*
X75065001Y-100200001D01*
X155345001Y-63920001D02*
X75865001Y-63920001D01*
X155345001Y-100200001D02*
X155345001Y-63920001D01*
X75065001Y-100200001D02*
X155345001Y-100200001D01*
X147405001Y-75060001D02*
G75*
G03*
X146905001Y-74560001I-500000J0D01*
G01*
X146905661Y-89559701D02*
G75*
G03*
X147406041Y-89059321I0J500380D01*
G01*
X82905281Y-89059321D02*
G75*
G03*
X83405661Y-89559701I500380J0D01*
G01*
X83405661Y-74558461D02*
G75*
G03*
X82905281Y-75058841I0J-500380D01*
G01*
%TO.C,SW1*%
X135490000Y-107490000D02*
X135490000Y-108990000D01*
X136740000Y-111490000D02*
X141240000Y-111490000D01*
X142490000Y-108990000D02*
X142490000Y-107490000D01*
X141240000Y-104990000D02*
X136740000Y-104990000D01*
%TO.C,A1*%
X121774999Y-121335001D02*
X121774999Y-103295001D01*
X78334999Y-121335001D02*
X121774999Y-121335001D01*
X78334999Y-103295001D02*
X78334999Y-121335001D01*
X81004999Y-105965001D02*
X81004999Y-103295001D01*
X116564999Y-105965001D02*
X81004999Y-105965001D01*
X116564999Y-105965001D02*
X116564999Y-103295001D01*
X81004999Y-118665001D02*
X81004999Y-121335001D01*
X119104999Y-118665001D02*
X81004999Y-118665001D01*
X119104999Y-118665001D02*
X119104999Y-121335001D01*
X121774999Y-103295001D02*
X119104999Y-103295001D01*
X116564999Y-103295001D02*
X78334999Y-103295001D01*
X119104999Y-105965001D02*
X119104999Y-103295001D01*
X116564999Y-105965001D02*
X119104999Y-105965001D01*
%TO.C,J2*%
X130810000Y-111760000D02*
X130810000Y-113030000D01*
X129540000Y-111760000D02*
X130810000Y-111760000D01*
X126620000Y-114072929D02*
X126620000Y-114470000D01*
X127380000Y-114072929D02*
X127380000Y-114470000D01*
X126620000Y-123130000D02*
X126620000Y-117130000D01*
X127380000Y-123130000D02*
X126620000Y-123130000D01*
X127380000Y-117130000D02*
X127380000Y-123130000D01*
X128270000Y-114470000D02*
X128270000Y-117130000D01*
X129160000Y-114140000D02*
X129160000Y-114470000D01*
X129920000Y-114140000D02*
X129920000Y-114470000D01*
X129260000Y-117130000D02*
X129260000Y-123130000D01*
X129380000Y-117130000D02*
X129380000Y-123130000D01*
X129500000Y-117130000D02*
X129500000Y-123130000D01*
X129620000Y-117130000D02*
X129620000Y-123130000D01*
X129740000Y-117130000D02*
X129740000Y-123130000D01*
X129860000Y-117130000D02*
X129860000Y-123130000D01*
X129160000Y-123130000D02*
X129160000Y-117130000D01*
X129920000Y-123130000D02*
X129160000Y-123130000D01*
X129920000Y-117130000D02*
X129920000Y-123130000D01*
X130870000Y-117130000D02*
X130870000Y-114470000D01*
X125670000Y-117130000D02*
X130870000Y-117130000D01*
X125670000Y-114470000D02*
X125670000Y-117130000D01*
X130870000Y-114470000D02*
X125670000Y-114470000D01*
%TO.C,RV1*%
X124850000Y-101850000D02*
X131690000Y-101850000D01*
X124850000Y-109090000D02*
X131690000Y-109090000D01*
X131690000Y-104760000D02*
X131690000Y-101850000D01*
X131690000Y-109090000D02*
X131690000Y-106060000D01*
X124850000Y-104760000D02*
X124850000Y-101850000D01*
X124850000Y-109090000D02*
X124850000Y-106060000D01*
%TO.C,SW2*%
X141240000Y-115150000D02*
X136740000Y-115150000D01*
X142490000Y-119150000D02*
X142490000Y-117650000D01*
X136740000Y-121650000D02*
X141240000Y-121650000D01*
X135490000Y-117650000D02*
X135490000Y-119150000D01*
%TO.C,SW3*%
X146920000Y-107490000D02*
X146920000Y-108990000D01*
X148170000Y-111490000D02*
X152670000Y-111490000D01*
X153920000Y-108990000D02*
X153920000Y-107490000D01*
X152670000Y-104990000D02*
X148170000Y-104990000D01*
%TO.C,SW4*%
X146920000Y-117650000D02*
X146920000Y-119150000D01*
X148170000Y-121650000D02*
X152670000Y-121650000D01*
X153920000Y-119150000D02*
X153920000Y-117650000D01*
X152670000Y-115150000D02*
X148170000Y-115150000D01*
%TO.C,R1*%
X126190000Y-69400000D02*
X126190000Y-72840000D01*
X126190000Y-72840000D02*
X135430000Y-72840000D01*
X135430000Y-72840000D02*
X135430000Y-69400000D01*
X135430000Y-69400000D02*
X126190000Y-69400000D01*
X125500000Y-71120000D02*
X126190000Y-71120000D01*
X136120000Y-71120000D02*
X135430000Y-71120000D01*
%TO.C,J1*%
X124400000Y-101540000D02*
X125730000Y-101540000D01*
X124400000Y-102870000D02*
X124400000Y-101540000D01*
X124400000Y-104140000D02*
X127060000Y-104140000D01*
X127060000Y-104140000D02*
X127060000Y-104200000D01*
X124400000Y-104140000D02*
X124400000Y-104200000D01*
X124400000Y-104200000D02*
X127060000Y-104200000D01*
%TO.C,J3*%
X129480000Y-104200000D02*
X132140000Y-104200000D01*
X129480000Y-104140000D02*
X129480000Y-104200000D01*
X132140000Y-104140000D02*
X132140000Y-104200000D01*
X129480000Y-104140000D02*
X132140000Y-104140000D01*
X129480000Y-102870000D02*
X129480000Y-101540000D01*
X129480000Y-101540000D02*
X130810000Y-101540000D01*
%TO.C,DS1*%
D10*
X76170715Y-63202381D02*
X76170715Y-62202381D01*
X76408810Y-62202381D01*
X76551667Y-62250001D01*
X76646905Y-62345239D01*
X76694524Y-62440477D01*
X76742143Y-62630953D01*
X76742143Y-62773810D01*
X76694524Y-62964286D01*
X76646905Y-63059524D01*
X76551667Y-63154762D01*
X76408810Y-63202381D01*
X76170715Y-63202381D01*
X77123096Y-63154762D02*
X77265953Y-63202381D01*
X77504048Y-63202381D01*
X77599286Y-63154762D01*
X77646905Y-63107143D01*
X77694524Y-63011905D01*
X77694524Y-62916667D01*
X77646905Y-62821429D01*
X77599286Y-62773810D01*
X77504048Y-62726191D01*
X77313572Y-62678572D01*
X77218334Y-62630953D01*
X77170715Y-62583334D01*
X77123096Y-62488096D01*
X77123096Y-62392858D01*
X77170715Y-62297620D01*
X77218334Y-62250001D01*
X77313572Y-62202381D01*
X77551667Y-62202381D01*
X77694524Y-62250001D01*
X78646905Y-63202381D02*
X78075477Y-63202381D01*
X78361191Y-63202381D02*
X78361191Y-62202381D01*
X78265953Y-62345239D01*
X78170715Y-62440477D01*
X78075477Y-62488096D01*
%TO.C,SW1*%
X137656666Y-112894761D02*
X137799523Y-112942380D01*
X138037619Y-112942380D01*
X138132857Y-112894761D01*
X138180476Y-112847142D01*
X138228095Y-112751904D01*
X138228095Y-112656666D01*
X138180476Y-112561428D01*
X138132857Y-112513809D01*
X138037619Y-112466190D01*
X137847142Y-112418571D01*
X137751904Y-112370952D01*
X137704285Y-112323333D01*
X137656666Y-112228095D01*
X137656666Y-112132857D01*
X137704285Y-112037619D01*
X137751904Y-111990000D01*
X137847142Y-111942380D01*
X138085238Y-111942380D01*
X138228095Y-111990000D01*
X138561428Y-111942380D02*
X138799523Y-112942380D01*
X138990000Y-112228095D01*
X139180476Y-112942380D01*
X139418571Y-111942380D01*
X140323333Y-112942380D02*
X139751904Y-112942380D01*
X140037619Y-112942380D02*
X140037619Y-111942380D01*
X139942380Y-112085238D01*
X139847142Y-112180476D01*
X139751904Y-112228095D01*
%TO.C,A1*%
X98345714Y-112481667D02*
X98821904Y-112481667D01*
X98250476Y-112767381D02*
X98583809Y-111767381D01*
X98917142Y-112767381D01*
X99774285Y-112767381D02*
X99202857Y-112767381D01*
X99488571Y-112767381D02*
X99488571Y-111767381D01*
X99393333Y-111910239D01*
X99298095Y-112005477D01*
X99202857Y-112053096D01*
%TO.C,J2*%
X128992380Y-110823333D02*
X129706666Y-110823333D01*
X129849523Y-110870952D01*
X129944761Y-110966190D01*
X129992380Y-111109047D01*
X129992380Y-111204285D01*
X129087619Y-110394761D02*
X129040000Y-110347142D01*
X128992380Y-110251904D01*
X128992380Y-110013809D01*
X129040000Y-109918571D01*
X129087619Y-109870952D01*
X129182857Y-109823333D01*
X129278095Y-109823333D01*
X129420952Y-109870952D01*
X129992380Y-110442380D01*
X129992380Y-109823333D01*
%TO.C,RV1*%
X127674761Y-110942380D02*
X127341428Y-110466190D01*
X127103333Y-110942380D02*
X127103333Y-109942380D01*
X127484285Y-109942380D01*
X127579523Y-109990000D01*
X127627142Y-110037619D01*
X127674761Y-110132857D01*
X127674761Y-110275714D01*
X127627142Y-110370952D01*
X127579523Y-110418571D01*
X127484285Y-110466190D01*
X127103333Y-110466190D01*
X127960476Y-109942380D02*
X128293809Y-110942380D01*
X128627142Y-109942380D01*
X129484285Y-110942380D02*
X128912857Y-110942380D01*
X129198571Y-110942380D02*
X129198571Y-109942380D01*
X129103333Y-110085238D01*
X129008095Y-110180476D01*
X128912857Y-110228095D01*
%TO.C,SW2*%
X137656666Y-123054761D02*
X137799523Y-123102380D01*
X138037619Y-123102380D01*
X138132857Y-123054761D01*
X138180476Y-123007142D01*
X138228095Y-122911904D01*
X138228095Y-122816666D01*
X138180476Y-122721428D01*
X138132857Y-122673809D01*
X138037619Y-122626190D01*
X137847142Y-122578571D01*
X137751904Y-122530952D01*
X137704285Y-122483333D01*
X137656666Y-122388095D01*
X137656666Y-122292857D01*
X137704285Y-122197619D01*
X137751904Y-122150000D01*
X137847142Y-122102380D01*
X138085238Y-122102380D01*
X138228095Y-122150000D01*
X138561428Y-122102380D02*
X138799523Y-123102380D01*
X138990000Y-122388095D01*
X139180476Y-123102380D01*
X139418571Y-122102380D01*
X139751904Y-122197619D02*
X139799523Y-122150000D01*
X139894761Y-122102380D01*
X140132857Y-122102380D01*
X140228095Y-122150000D01*
X140275714Y-122197619D01*
X140323333Y-122292857D01*
X140323333Y-122388095D01*
X140275714Y-122530952D01*
X139704285Y-123102380D01*
X140323333Y-123102380D01*
%TO.C,SW3*%
X149086666Y-112894761D02*
X149229523Y-112942380D01*
X149467619Y-112942380D01*
X149562857Y-112894761D01*
X149610476Y-112847142D01*
X149658095Y-112751904D01*
X149658095Y-112656666D01*
X149610476Y-112561428D01*
X149562857Y-112513809D01*
X149467619Y-112466190D01*
X149277142Y-112418571D01*
X149181904Y-112370952D01*
X149134285Y-112323333D01*
X149086666Y-112228095D01*
X149086666Y-112132857D01*
X149134285Y-112037619D01*
X149181904Y-111990000D01*
X149277142Y-111942380D01*
X149515238Y-111942380D01*
X149658095Y-111990000D01*
X149991428Y-111942380D02*
X150229523Y-112942380D01*
X150420000Y-112228095D01*
X150610476Y-112942380D01*
X150848571Y-111942380D01*
X151134285Y-111942380D02*
X151753333Y-111942380D01*
X151420000Y-112323333D01*
X151562857Y-112323333D01*
X151658095Y-112370952D01*
X151705714Y-112418571D01*
X151753333Y-112513809D01*
X151753333Y-112751904D01*
X151705714Y-112847142D01*
X151658095Y-112894761D01*
X151562857Y-112942380D01*
X151277142Y-112942380D01*
X151181904Y-112894761D01*
X151134285Y-112847142D01*
%TO.C,SW4*%
X149086666Y-123054761D02*
X149229523Y-123102380D01*
X149467619Y-123102380D01*
X149562857Y-123054761D01*
X149610476Y-123007142D01*
X149658095Y-122911904D01*
X149658095Y-122816666D01*
X149610476Y-122721428D01*
X149562857Y-122673809D01*
X149467619Y-122626190D01*
X149277142Y-122578571D01*
X149181904Y-122530952D01*
X149134285Y-122483333D01*
X149086666Y-122388095D01*
X149086666Y-122292857D01*
X149134285Y-122197619D01*
X149181904Y-122150000D01*
X149277142Y-122102380D01*
X149515238Y-122102380D01*
X149658095Y-122150000D01*
X149991428Y-122102380D02*
X150229523Y-123102380D01*
X150420000Y-122388095D01*
X150610476Y-123102380D01*
X150848571Y-122102380D01*
X151658095Y-122435714D02*
X151658095Y-123102380D01*
X151420000Y-122054761D02*
X151181904Y-122769047D01*
X151800952Y-122769047D01*
%TO.C,R1*%
X130643333Y-68852380D02*
X130310000Y-68376190D01*
X130071904Y-68852380D02*
X130071904Y-67852380D01*
X130452857Y-67852380D01*
X130548095Y-67900000D01*
X130595714Y-67947619D01*
X130643333Y-68042857D01*
X130643333Y-68185714D01*
X130595714Y-68280952D01*
X130548095Y-68328571D01*
X130452857Y-68376190D01*
X130071904Y-68376190D01*
X131595714Y-68852380D02*
X131024285Y-68852380D01*
X131310000Y-68852380D02*
X131310000Y-67852380D01*
X131214761Y-67995238D01*
X131119523Y-68090476D01*
X131024285Y-68138095D01*
%TO.C,J1*%
X125396666Y-99992380D02*
X125396666Y-100706666D01*
X125349047Y-100849523D01*
X125253809Y-100944761D01*
X125110952Y-100992380D01*
X125015714Y-100992380D01*
X126396666Y-100992380D02*
X125825238Y-100992380D01*
X126110952Y-100992380D02*
X126110952Y-99992380D01*
X126015714Y-100135238D01*
X125920476Y-100230476D01*
X125825238Y-100278095D01*
%TO.C,J3*%
X130476666Y-99992380D02*
X130476666Y-100706666D01*
X130429047Y-100849523D01*
X130333809Y-100944761D01*
X130190952Y-100992380D01*
X130095714Y-100992380D01*
X130857619Y-99992380D02*
X131476666Y-99992380D01*
X131143333Y-100373333D01*
X131286190Y-100373333D01*
X131381428Y-100420952D01*
X131429047Y-100468571D01*
X131476666Y-100563809D01*
X131476666Y-100801904D01*
X131429047Y-100897142D01*
X131381428Y-100944761D01*
X131286190Y-100992380D01*
X131000476Y-100992380D01*
X130905238Y-100944761D01*
X130857619Y-100897142D01*
%TD*%
M02*
