%TF.GenerationSoftware,KiCad,Pcbnew,(5.1.9)-1*%
%TF.CreationDate,2021-05-01T20:45:07-06:00*%
%TF.ProjectId,decoder,6465636f-6465-4722-9e6b-696361645f70,rev?*%
%TF.SameCoordinates,Original*%
%TF.FileFunction,Soldermask,Top*%
%TF.FilePolarity,Negative*%
%FSLAX46Y46*%
G04 Gerber Fmt 4.6, Leading zero omitted, Abs format (unit mm)*
G04 Created by KiCad (PCBNEW (5.1.9)-1) date 2021-05-01 20:45:07*
%MOMM*%
%LPD*%
G01*
G04 APERTURE LIST*
%ADD10R,1.800000X2.600000*%
%ADD11O,1.800000X2.600000*%
%ADD12C,3.000000*%
%ADD13C,2.000000*%
%ADD14R,1.600000X1.600000*%
%ADD15O,1.600000X1.600000*%
%ADD16R,1.700000X1.700000*%
%ADD17O,1.700000X1.700000*%
%ADD18C,1.440000*%
%ADD19C,1.600000*%
G04 APERTURE END LIST*
D10*
%TO.C,DS1*%
X83205001Y-66560001D03*
D11*
X85745001Y-66560001D03*
X88285001Y-66560001D03*
X90825001Y-66560001D03*
X93365001Y-66560001D03*
X95905001Y-66560001D03*
X98445001Y-66560001D03*
X100985001Y-66560001D03*
X103525001Y-66560001D03*
X106065001Y-66560001D03*
X108605001Y-66560001D03*
X111145001Y-66560001D03*
X113685001Y-66560001D03*
X116225001Y-66560001D03*
X118765001Y-66560001D03*
X121305001Y-66560001D03*
D12*
X77705901Y-66560001D03*
X77705901Y-97560701D03*
X152704481Y-97560701D03*
X152705001Y-66560001D03*
%TD*%
D13*
%TO.C,SW1*%
X142240000Y-105990000D03*
X142240000Y-110490000D03*
X135740000Y-105990000D03*
X135740000Y-110490000D03*
%TD*%
D14*
%TO.C,A1*%
X117834999Y-104695001D03*
D15*
X84814999Y-119935001D03*
X115294999Y-104695001D03*
X87354999Y-119935001D03*
X112754999Y-104695001D03*
X89894999Y-119935001D03*
X110214999Y-104695001D03*
X92434999Y-119935001D03*
X107674999Y-104695001D03*
X94974999Y-119935001D03*
X105134999Y-104695001D03*
X97514999Y-119935001D03*
X102594999Y-104695001D03*
X100054999Y-119935001D03*
X100054999Y-104695001D03*
X102594999Y-119935001D03*
X97514999Y-104695001D03*
X105134999Y-119935001D03*
X94974999Y-104695001D03*
X107674999Y-119935001D03*
X92434999Y-104695001D03*
X110214999Y-119935001D03*
X89894999Y-104695001D03*
X112754999Y-119935001D03*
X87354999Y-104695001D03*
X115294999Y-119935001D03*
X84814999Y-104695001D03*
X117834999Y-119935001D03*
X82274999Y-104695001D03*
X82274999Y-119935001D03*
%TD*%
D16*
%TO.C,J2*%
X129540000Y-113030000D03*
D17*
X127000000Y-113030000D03*
%TD*%
D18*
%TO.C,RV1*%
X125730000Y-105410000D03*
X128270000Y-102870000D03*
X130810000Y-105410000D03*
%TD*%
D13*
%TO.C,SW2*%
X135740000Y-120650000D03*
X135740000Y-116150000D03*
X142240000Y-120650000D03*
X142240000Y-116150000D03*
%TD*%
%TO.C,SW3*%
X153670000Y-105990000D03*
X153670000Y-110490000D03*
X147170000Y-105990000D03*
X147170000Y-110490000D03*
%TD*%
%TO.C,SW4*%
X153670000Y-116150000D03*
X153670000Y-120650000D03*
X147170000Y-116150000D03*
X147170000Y-120650000D03*
%TD*%
D19*
%TO.C,R1*%
X124460000Y-71120000D03*
D15*
X137160000Y-71120000D03*
%TD*%
D16*
%TO.C,J1*%
X125730000Y-102870000D03*
%TD*%
%TO.C,J3*%
X130810000Y-102870000D03*
%TD*%
M02*
