M48
; DRILL file {KiCad (5.1.9)-1} date 05/01/21 20:48:32
; FORMAT={2:4/ absolute / inch / suppress leading zeros}
; #@! TF.CreationDate,2021-05-01T20:48:32-06:00
; #@! TF.GenerationSoftware,Kicad,Pcbnew,(5.1.9)-1
FMAT,2
INCH,TZ
T1C0.0315
T2C0.0394
T3C0.0433
T4C0.0472
T5C0.0984
%
G90
G05
T1
X49000Y-28000
X49500Y-41500
X50500Y-40500
X51500Y-41500
X54000Y-28000
T2
X32392Y-41219
X32392Y-47219
X33392Y-41219
X33392Y-47219
X34392Y-41219
X34392Y-47219
X35392Y-41219
X35392Y-47219
X36392Y-41219
X36392Y-47219
X37392Y-41219
X37392Y-47219
X38392Y-41219
X38392Y-47219
X39392Y-41219
X39392Y-47219
X40392Y-41219
X40392Y-47219
X41392Y-41219
X41392Y-47219
X42392Y-41219
X42392Y-47219
X43392Y-41219
X43392Y-47219
X44392Y-41219
X44392Y-47219
X45392Y-41219
X45392Y-47219
X46392Y-41219
X46392Y-47219
X49500Y-40500
X50000Y-44500
X51000Y-44500
X51500Y-40500
T3
X53441Y-41728
X53441Y-43500
X53441Y-45728
X53441Y-47500
X56000Y-41728
X56000Y-43500
X56000Y-45728
X56000Y-47500
X57941Y-41728
X57941Y-43500
X57941Y-45728
X57941Y-47500
X60500Y-41728
X60500Y-43500
X60500Y-45728
X60500Y-47500
T4
X32758Y-26205
X33758Y-26205
X34758Y-26205
X35758Y-26205
X36758Y-26205
X37758Y-26205
X38758Y-26205
X39758Y-26205
X40758Y-26205
X41758Y-26205
X42758Y-26205
X43758Y-26205
X44758Y-26205
X45758Y-26205
X46758Y-26205
X47758Y-26205
T5
X30593Y-26205
X30593Y-38410
X60120Y-38410
X60120Y-26205
T0
M30
