%TF.GenerationSoftware,KiCad,Pcbnew,(5.1.9)-1*%
%TF.CreationDate,2021-05-01T20:45:07-06:00*%
%TF.ProjectId,decoder,6465636f-6465-4722-9e6b-696361645f70,rev?*%
%TF.SameCoordinates,Original*%
%TF.FileFunction,Copper,L2,Bot*%
%TF.FilePolarity,Positive*%
%FSLAX46Y46*%
G04 Gerber Fmt 4.6, Leading zero omitted, Abs format (unit mm)*
G04 Created by KiCad (PCBNEW (5.1.9)-1) date 2021-05-01 20:45:07*
%MOMM*%
%LPD*%
G01*
G04 APERTURE LIST*
%TA.AperFunction,ComponentPad*%
%ADD10R,1.800000X2.600000*%
%TD*%
%TA.AperFunction,ComponentPad*%
%ADD11O,1.800000X2.600000*%
%TD*%
%TA.AperFunction,ComponentPad*%
%ADD12C,3.000000*%
%TD*%
%TA.AperFunction,ComponentPad*%
%ADD13C,2.000000*%
%TD*%
%TA.AperFunction,ComponentPad*%
%ADD14R,1.600000X1.600000*%
%TD*%
%TA.AperFunction,ComponentPad*%
%ADD15O,1.600000X1.600000*%
%TD*%
%TA.AperFunction,ComponentPad*%
%ADD16R,1.700000X1.700000*%
%TD*%
%TA.AperFunction,ComponentPad*%
%ADD17O,1.700000X1.700000*%
%TD*%
%TA.AperFunction,ComponentPad*%
%ADD18C,1.440000*%
%TD*%
%TA.AperFunction,ComponentPad*%
%ADD19C,1.600000*%
%TD*%
%TA.AperFunction,Conductor*%
%ADD20C,0.500000*%
%TD*%
%TA.AperFunction,Conductor*%
%ADD21C,0.254000*%
%TD*%
%TA.AperFunction,Conductor*%
%ADD22C,0.100000*%
%TD*%
G04 APERTURE END LIST*
D10*
%TO.P,DS1,1*%
%TO.N,GND*%
X83205001Y-66560001D03*
D11*
%TO.P,DS1,2*%
%TO.N,+5V*%
X85745001Y-66560001D03*
%TO.P,DS1,3*%
%TO.N,Contrast*%
X88285001Y-66560001D03*
%TO.P,DS1,4*%
%TO.N,RS*%
X90825001Y-66560001D03*
%TO.P,DS1,5*%
%TO.N,GND*%
X93365001Y-66560001D03*
%TO.P,DS1,6*%
%TO.N,Enable*%
X95905001Y-66560001D03*
%TO.P,DS1,7*%
%TO.N,Net-(DS1-Pad7)*%
X98445001Y-66560001D03*
%TO.P,DS1,8*%
%TO.N,Net-(DS1-Pad8)*%
X100985001Y-66560001D03*
%TO.P,DS1,9*%
%TO.N,Net-(DS1-Pad9)*%
X103525001Y-66560001D03*
%TO.P,DS1,10*%
%TO.N,Net-(DS1-Pad10)*%
X106065001Y-66560001D03*
%TO.P,DS1,11*%
%TO.N,D4*%
X108605001Y-66560001D03*
%TO.P,DS1,12*%
%TO.N,D5*%
X111145001Y-66560001D03*
%TO.P,DS1,13*%
%TO.N,D6*%
X113685001Y-66560001D03*
%TO.P,DS1,14*%
%TO.N,D7*%
X116225001Y-66560001D03*
%TO.P,DS1,15*%
%TO.N,+5V*%
X118765001Y-66560001D03*
%TO.P,DS1,16*%
%TO.N,Net-(DS1-Pad16)*%
X121305001Y-66560001D03*
D12*
%TO.P,DS1,*%
%TO.N,*%
X77705901Y-66560001D03*
X77705901Y-97560701D03*
X152704481Y-97560701D03*
X152705001Y-66560001D03*
%TD*%
D13*
%TO.P,SW1,2*%
%TO.N,Net-(A1-Pad10)*%
X142240000Y-105990000D03*
%TO.P,SW1,1*%
%TO.N,GND*%
X142240000Y-110490000D03*
%TO.P,SW1,2*%
%TO.N,Net-(A1-Pad10)*%
X135740000Y-105990000D03*
%TO.P,SW1,1*%
%TO.N,GND*%
X135740000Y-110490000D03*
%TD*%
D14*
%TO.P,A1,1*%
%TO.N,Net-(A1-Pad1)*%
X117834999Y-104695001D03*
D15*
%TO.P,A1,17*%
%TO.N,Net-(A1-Pad17)*%
X84814999Y-119935001D03*
%TO.P,A1,2*%
%TO.N,Net-(A1-Pad2)*%
X115294999Y-104695001D03*
%TO.P,A1,18*%
%TO.N,Net-(A1-Pad18)*%
X87354999Y-119935001D03*
%TO.P,A1,3*%
%TO.N,Net-(A1-Pad3)*%
X112754999Y-104695001D03*
%TO.P,A1,19*%
%TO.N,Net-(A1-Pad19)*%
X89894999Y-119935001D03*
%TO.P,A1,4*%
%TO.N,GND*%
X110214999Y-104695001D03*
%TO.P,A1,20*%
%TO.N,Net-(A1-Pad20)*%
X92434999Y-119935001D03*
%TO.P,A1,5*%
%TO.N,D7*%
X107674999Y-104695001D03*
%TO.P,A1,21*%
%TO.N,Net-(A1-Pad21)*%
X94974999Y-119935001D03*
%TO.P,A1,6*%
%TO.N,D6*%
X105134999Y-104695001D03*
%TO.P,A1,22*%
%TO.N,Net-(A1-Pad22)*%
X97514999Y-119935001D03*
%TO.P,A1,7*%
%TO.N,D5*%
X102594999Y-104695001D03*
%TO.P,A1,23*%
%TO.N,Net-(A1-Pad23)*%
X100054999Y-119935001D03*
%TO.P,A1,8*%
%TO.N,D4*%
X100054999Y-104695001D03*
%TO.P,A1,24*%
%TO.N,Net-(A1-Pad24)*%
X102594999Y-119935001D03*
%TO.P,A1,9*%
%TO.N,Net-(A1-Pad9)*%
X97514999Y-104695001D03*
%TO.P,A1,25*%
%TO.N,Net-(A1-Pad25)*%
X105134999Y-119935001D03*
%TO.P,A1,10*%
%TO.N,Net-(A1-Pad10)*%
X94974999Y-104695001D03*
%TO.P,A1,26*%
%TO.N,Net-(A1-Pad26)*%
X107674999Y-119935001D03*
%TO.P,A1,11*%
%TO.N,Net-(A1-Pad11)*%
X92434999Y-104695001D03*
%TO.P,A1,27*%
%TO.N,+5V*%
X110214999Y-119935001D03*
%TO.P,A1,12*%
%TO.N,Net-(A1-Pad12)*%
X89894999Y-104695001D03*
%TO.P,A1,28*%
%TO.N,Net-(A1-Pad28)*%
X112754999Y-119935001D03*
%TO.P,A1,13*%
%TO.N,Net-(A1-Pad13)*%
X87354999Y-104695001D03*
%TO.P,A1,29*%
%TO.N,GND*%
X115294999Y-119935001D03*
%TO.P,A1,14*%
%TO.N,Enable*%
X84814999Y-104695001D03*
%TO.P,A1,30*%
%TO.N,VIN*%
X117834999Y-119935001D03*
%TO.P,A1,15*%
%TO.N,RS*%
X82274999Y-104695001D03*
%TO.P,A1,16*%
%TO.N,Net-(A1-Pad16)*%
X82274999Y-119935001D03*
%TD*%
D16*
%TO.P,J2,1*%
%TO.N,VIN*%
X129540000Y-113030000D03*
D17*
%TO.P,J2,2*%
%TO.N,GND*%
X127000000Y-113030000D03*
%TD*%
D18*
%TO.P,RV1,3*%
%TO.N,+5V*%
X125730000Y-105410000D03*
%TO.P,RV1,2*%
%TO.N,Contrast*%
X128270000Y-102870000D03*
%TO.P,RV1,1*%
%TO.N,GND*%
X130810000Y-105410000D03*
%TD*%
D13*
%TO.P,SW2,1*%
%TO.N,GND*%
X135740000Y-120650000D03*
%TO.P,SW2,2*%
%TO.N,Net-(A1-Pad11)*%
X135740000Y-116150000D03*
%TO.P,SW2,1*%
%TO.N,GND*%
X142240000Y-120650000D03*
%TO.P,SW2,2*%
%TO.N,Net-(A1-Pad11)*%
X142240000Y-116150000D03*
%TD*%
%TO.P,SW3,2*%
%TO.N,Net-(A1-Pad12)*%
X153670000Y-105990000D03*
%TO.P,SW3,1*%
%TO.N,GND*%
X153670000Y-110490000D03*
%TO.P,SW3,2*%
%TO.N,Net-(A1-Pad12)*%
X147170000Y-105990000D03*
%TO.P,SW3,1*%
%TO.N,GND*%
X147170000Y-110490000D03*
%TD*%
%TO.P,SW4,2*%
%TO.N,Net-(A1-Pad9)*%
X153670000Y-116150000D03*
%TO.P,SW4,1*%
%TO.N,GND*%
X153670000Y-120650000D03*
%TO.P,SW4,2*%
%TO.N,Net-(A1-Pad9)*%
X147170000Y-116150000D03*
%TO.P,SW4,1*%
%TO.N,GND*%
X147170000Y-120650000D03*
%TD*%
D19*
%TO.P,R1,1*%
%TO.N,Net-(DS1-Pad16)*%
X124460000Y-71120000D03*
D15*
%TO.P,R1,2*%
%TO.N,GND*%
X137160000Y-71120000D03*
%TD*%
D16*
%TO.P,J1,1*%
%TO.N,+5V*%
X125730000Y-102870000D03*
%TD*%
%TO.P,J3,1*%
%TO.N,Net-(J3-Pad1)*%
X130810000Y-102870000D03*
%TD*%
D20*
%TO.N,Net-(A1-Pad9)*%
X99060000Y-109220000D02*
X97514999Y-107674999D01*
X97514999Y-107674999D02*
X97514999Y-104695001D01*
X128240002Y-109220000D02*
X99060000Y-109220000D01*
X132050002Y-113030000D02*
X128240002Y-109220000D01*
X144050000Y-113030000D02*
X132050002Y-113030000D01*
X147170000Y-116150000D02*
X144050000Y-113030000D01*
%TO.N,Net-(A1-Pad11)*%
X135740000Y-116150000D02*
X100910000Y-116150000D01*
X92434999Y-107674999D02*
X100910000Y-116150000D01*
X92434999Y-104695001D02*
X92434999Y-107674999D01*
%TO.N,+5V*%
X125730000Y-102870000D02*
X125730000Y-105410000D01*
%TO.N,Contrast*%
X88285001Y-66560001D02*
X88285001Y-70505001D01*
X88285001Y-70505001D02*
X113030000Y-95250000D01*
X113030000Y-95250000D02*
X124460000Y-95250000D01*
X124460000Y-95250000D02*
X128270000Y-99060000D01*
X128270000Y-99060000D02*
X128270000Y-102870000D01*
%TD*%
D21*
%TO.N,+5V*%
X155057869Y-62904722D02*
X155171246Y-62938953D01*
X155275819Y-62994555D01*
X155367596Y-63069407D01*
X155443091Y-63160664D01*
X155499419Y-63264844D01*
X155534440Y-63377976D01*
X155550001Y-63526031D01*
X155550000Y-121887721D01*
X155535278Y-122037869D01*
X155501047Y-122151246D01*
X155445446Y-122255817D01*
X155370594Y-122347595D01*
X155279335Y-122423091D01*
X155175160Y-122479419D01*
X155062024Y-122514440D01*
X154913979Y-122530000D01*
X74962279Y-122530000D01*
X74812131Y-122515278D01*
X74698754Y-122481047D01*
X74594183Y-122425446D01*
X74502405Y-122350594D01*
X74426909Y-122259335D01*
X74370581Y-122155160D01*
X74335560Y-122042024D01*
X74320000Y-121893979D01*
X74320000Y-119793666D01*
X80839999Y-119793666D01*
X80839999Y-120076336D01*
X80895146Y-120353575D01*
X81003319Y-120614728D01*
X81160362Y-120849760D01*
X81360240Y-121049638D01*
X81595272Y-121206681D01*
X81856425Y-121314854D01*
X82133664Y-121370001D01*
X82416334Y-121370001D01*
X82693573Y-121314854D01*
X82954726Y-121206681D01*
X83189758Y-121049638D01*
X83389636Y-120849760D01*
X83544999Y-120617242D01*
X83700362Y-120849760D01*
X83900240Y-121049638D01*
X84135272Y-121206681D01*
X84396425Y-121314854D01*
X84673664Y-121370001D01*
X84956334Y-121370001D01*
X85233573Y-121314854D01*
X85494726Y-121206681D01*
X85729758Y-121049638D01*
X85929636Y-120849760D01*
X86084999Y-120617242D01*
X86240362Y-120849760D01*
X86440240Y-121049638D01*
X86675272Y-121206681D01*
X86936425Y-121314854D01*
X87213664Y-121370001D01*
X87496334Y-121370001D01*
X87773573Y-121314854D01*
X88034726Y-121206681D01*
X88269758Y-121049638D01*
X88469636Y-120849760D01*
X88624999Y-120617242D01*
X88780362Y-120849760D01*
X88980240Y-121049638D01*
X89215272Y-121206681D01*
X89476425Y-121314854D01*
X89753664Y-121370001D01*
X90036334Y-121370001D01*
X90313573Y-121314854D01*
X90574726Y-121206681D01*
X90809758Y-121049638D01*
X91009636Y-120849760D01*
X91164999Y-120617242D01*
X91320362Y-120849760D01*
X91520240Y-121049638D01*
X91755272Y-121206681D01*
X92016425Y-121314854D01*
X92293664Y-121370001D01*
X92576334Y-121370001D01*
X92853573Y-121314854D01*
X93114726Y-121206681D01*
X93349758Y-121049638D01*
X93549636Y-120849760D01*
X93704999Y-120617242D01*
X93860362Y-120849760D01*
X94060240Y-121049638D01*
X94295272Y-121206681D01*
X94556425Y-121314854D01*
X94833664Y-121370001D01*
X95116334Y-121370001D01*
X95393573Y-121314854D01*
X95654726Y-121206681D01*
X95889758Y-121049638D01*
X96089636Y-120849760D01*
X96244999Y-120617242D01*
X96400362Y-120849760D01*
X96600240Y-121049638D01*
X96835272Y-121206681D01*
X97096425Y-121314854D01*
X97373664Y-121370001D01*
X97656334Y-121370001D01*
X97933573Y-121314854D01*
X98194726Y-121206681D01*
X98429758Y-121049638D01*
X98629636Y-120849760D01*
X98784999Y-120617242D01*
X98940362Y-120849760D01*
X99140240Y-121049638D01*
X99375272Y-121206681D01*
X99636425Y-121314854D01*
X99913664Y-121370001D01*
X100196334Y-121370001D01*
X100473573Y-121314854D01*
X100734726Y-121206681D01*
X100969758Y-121049638D01*
X101169636Y-120849760D01*
X101324999Y-120617242D01*
X101480362Y-120849760D01*
X101680240Y-121049638D01*
X101915272Y-121206681D01*
X102176425Y-121314854D01*
X102453664Y-121370001D01*
X102736334Y-121370001D01*
X103013573Y-121314854D01*
X103274726Y-121206681D01*
X103509758Y-121049638D01*
X103709636Y-120849760D01*
X103864999Y-120617242D01*
X104020362Y-120849760D01*
X104220240Y-121049638D01*
X104455272Y-121206681D01*
X104716425Y-121314854D01*
X104993664Y-121370001D01*
X105276334Y-121370001D01*
X105553573Y-121314854D01*
X105814726Y-121206681D01*
X106049758Y-121049638D01*
X106249636Y-120849760D01*
X106404999Y-120617242D01*
X106560362Y-120849760D01*
X106760240Y-121049638D01*
X106995272Y-121206681D01*
X107256425Y-121314854D01*
X107533664Y-121370001D01*
X107816334Y-121370001D01*
X108093573Y-121314854D01*
X108354726Y-121206681D01*
X108589758Y-121049638D01*
X108789636Y-120849760D01*
X108946679Y-120614728D01*
X108951066Y-120604136D01*
X109062614Y-120790132D01*
X109251585Y-120998520D01*
X109477579Y-121166038D01*
X109731912Y-121286247D01*
X109865960Y-121326905D01*
X110087999Y-121204916D01*
X110087999Y-120062001D01*
X110067999Y-120062001D01*
X110067999Y-119808001D01*
X110087999Y-119808001D01*
X110087999Y-118665086D01*
X110341999Y-118665086D01*
X110341999Y-119808001D01*
X110361999Y-119808001D01*
X110361999Y-120062001D01*
X110341999Y-120062001D01*
X110341999Y-121204916D01*
X110564038Y-121326905D01*
X110698086Y-121286247D01*
X110952419Y-121166038D01*
X111178413Y-120998520D01*
X111367384Y-120790132D01*
X111478932Y-120604136D01*
X111483319Y-120614728D01*
X111640362Y-120849760D01*
X111840240Y-121049638D01*
X112075272Y-121206681D01*
X112336425Y-121314854D01*
X112613664Y-121370001D01*
X112896334Y-121370001D01*
X113173573Y-121314854D01*
X113434726Y-121206681D01*
X113669758Y-121049638D01*
X113869636Y-120849760D01*
X114024999Y-120617242D01*
X114180362Y-120849760D01*
X114380240Y-121049638D01*
X114615272Y-121206681D01*
X114876425Y-121314854D01*
X115153664Y-121370001D01*
X115436334Y-121370001D01*
X115713573Y-121314854D01*
X115974726Y-121206681D01*
X116209758Y-121049638D01*
X116409636Y-120849760D01*
X116564999Y-120617242D01*
X116720362Y-120849760D01*
X116920240Y-121049638D01*
X117155272Y-121206681D01*
X117416425Y-121314854D01*
X117693664Y-121370001D01*
X117976334Y-121370001D01*
X118253573Y-121314854D01*
X118514726Y-121206681D01*
X118749758Y-121049638D01*
X118949636Y-120849760D01*
X119106679Y-120614728D01*
X119158770Y-120488967D01*
X134105000Y-120488967D01*
X134105000Y-120811033D01*
X134167832Y-121126912D01*
X134291082Y-121424463D01*
X134470013Y-121692252D01*
X134697748Y-121919987D01*
X134965537Y-122098918D01*
X135263088Y-122222168D01*
X135578967Y-122285000D01*
X135901033Y-122285000D01*
X136216912Y-122222168D01*
X136514463Y-122098918D01*
X136782252Y-121919987D01*
X137009987Y-121692252D01*
X137188918Y-121424463D01*
X137312168Y-121126912D01*
X137375000Y-120811033D01*
X137375000Y-120488967D01*
X140605000Y-120488967D01*
X140605000Y-120811033D01*
X140667832Y-121126912D01*
X140791082Y-121424463D01*
X140970013Y-121692252D01*
X141197748Y-121919987D01*
X141465537Y-122098918D01*
X141763088Y-122222168D01*
X142078967Y-122285000D01*
X142401033Y-122285000D01*
X142716912Y-122222168D01*
X143014463Y-122098918D01*
X143282252Y-121919987D01*
X143509987Y-121692252D01*
X143688918Y-121424463D01*
X143812168Y-121126912D01*
X143875000Y-120811033D01*
X143875000Y-120488967D01*
X145535000Y-120488967D01*
X145535000Y-120811033D01*
X145597832Y-121126912D01*
X145721082Y-121424463D01*
X145900013Y-121692252D01*
X146127748Y-121919987D01*
X146395537Y-122098918D01*
X146693088Y-122222168D01*
X147008967Y-122285000D01*
X147331033Y-122285000D01*
X147646912Y-122222168D01*
X147944463Y-122098918D01*
X148212252Y-121919987D01*
X148439987Y-121692252D01*
X148618918Y-121424463D01*
X148742168Y-121126912D01*
X148805000Y-120811033D01*
X148805000Y-120488967D01*
X152035000Y-120488967D01*
X152035000Y-120811033D01*
X152097832Y-121126912D01*
X152221082Y-121424463D01*
X152400013Y-121692252D01*
X152627748Y-121919987D01*
X152895537Y-122098918D01*
X153193088Y-122222168D01*
X153508967Y-122285000D01*
X153831033Y-122285000D01*
X154146912Y-122222168D01*
X154444463Y-122098918D01*
X154712252Y-121919987D01*
X154939987Y-121692252D01*
X155118918Y-121424463D01*
X155242168Y-121126912D01*
X155305000Y-120811033D01*
X155305000Y-120488967D01*
X155242168Y-120173088D01*
X155118918Y-119875537D01*
X154939987Y-119607748D01*
X154712252Y-119380013D01*
X154444463Y-119201082D01*
X154146912Y-119077832D01*
X153831033Y-119015000D01*
X153508967Y-119015000D01*
X153193088Y-119077832D01*
X152895537Y-119201082D01*
X152627748Y-119380013D01*
X152400013Y-119607748D01*
X152221082Y-119875537D01*
X152097832Y-120173088D01*
X152035000Y-120488967D01*
X148805000Y-120488967D01*
X148742168Y-120173088D01*
X148618918Y-119875537D01*
X148439987Y-119607748D01*
X148212252Y-119380013D01*
X147944463Y-119201082D01*
X147646912Y-119077832D01*
X147331033Y-119015000D01*
X147008967Y-119015000D01*
X146693088Y-119077832D01*
X146395537Y-119201082D01*
X146127748Y-119380013D01*
X145900013Y-119607748D01*
X145721082Y-119875537D01*
X145597832Y-120173088D01*
X145535000Y-120488967D01*
X143875000Y-120488967D01*
X143812168Y-120173088D01*
X143688918Y-119875537D01*
X143509987Y-119607748D01*
X143282252Y-119380013D01*
X143014463Y-119201082D01*
X142716912Y-119077832D01*
X142401033Y-119015000D01*
X142078967Y-119015000D01*
X141763088Y-119077832D01*
X141465537Y-119201082D01*
X141197748Y-119380013D01*
X140970013Y-119607748D01*
X140791082Y-119875537D01*
X140667832Y-120173088D01*
X140605000Y-120488967D01*
X137375000Y-120488967D01*
X137312168Y-120173088D01*
X137188918Y-119875537D01*
X137009987Y-119607748D01*
X136782252Y-119380013D01*
X136514463Y-119201082D01*
X136216912Y-119077832D01*
X135901033Y-119015000D01*
X135578967Y-119015000D01*
X135263088Y-119077832D01*
X134965537Y-119201082D01*
X134697748Y-119380013D01*
X134470013Y-119607748D01*
X134291082Y-119875537D01*
X134167832Y-120173088D01*
X134105000Y-120488967D01*
X119158770Y-120488967D01*
X119214852Y-120353575D01*
X119269999Y-120076336D01*
X119269999Y-119793666D01*
X119214852Y-119516427D01*
X119106679Y-119255274D01*
X118949636Y-119020242D01*
X118749758Y-118820364D01*
X118514726Y-118663321D01*
X118253573Y-118555148D01*
X117976334Y-118500001D01*
X117693664Y-118500001D01*
X117416425Y-118555148D01*
X117155272Y-118663321D01*
X116920240Y-118820364D01*
X116720362Y-119020242D01*
X116564999Y-119252760D01*
X116409636Y-119020242D01*
X116209758Y-118820364D01*
X115974726Y-118663321D01*
X115713573Y-118555148D01*
X115436334Y-118500001D01*
X115153664Y-118500001D01*
X114876425Y-118555148D01*
X114615272Y-118663321D01*
X114380240Y-118820364D01*
X114180362Y-119020242D01*
X114024999Y-119252760D01*
X113869636Y-119020242D01*
X113669758Y-118820364D01*
X113434726Y-118663321D01*
X113173573Y-118555148D01*
X112896334Y-118500001D01*
X112613664Y-118500001D01*
X112336425Y-118555148D01*
X112075272Y-118663321D01*
X111840240Y-118820364D01*
X111640362Y-119020242D01*
X111483319Y-119255274D01*
X111478932Y-119265866D01*
X111367384Y-119079870D01*
X111178413Y-118871482D01*
X110952419Y-118703964D01*
X110698086Y-118583755D01*
X110564038Y-118543097D01*
X110341999Y-118665086D01*
X110087999Y-118665086D01*
X109865960Y-118543097D01*
X109731912Y-118583755D01*
X109477579Y-118703964D01*
X109251585Y-118871482D01*
X109062614Y-119079870D01*
X108951066Y-119265866D01*
X108946679Y-119255274D01*
X108789636Y-119020242D01*
X108589758Y-118820364D01*
X108354726Y-118663321D01*
X108093573Y-118555148D01*
X107816334Y-118500001D01*
X107533664Y-118500001D01*
X107256425Y-118555148D01*
X106995272Y-118663321D01*
X106760240Y-118820364D01*
X106560362Y-119020242D01*
X106404999Y-119252760D01*
X106249636Y-119020242D01*
X106049758Y-118820364D01*
X105814726Y-118663321D01*
X105553573Y-118555148D01*
X105276334Y-118500001D01*
X104993664Y-118500001D01*
X104716425Y-118555148D01*
X104455272Y-118663321D01*
X104220240Y-118820364D01*
X104020362Y-119020242D01*
X103864999Y-119252760D01*
X103709636Y-119020242D01*
X103509758Y-118820364D01*
X103274726Y-118663321D01*
X103013573Y-118555148D01*
X102736334Y-118500001D01*
X102453664Y-118500001D01*
X102176425Y-118555148D01*
X101915272Y-118663321D01*
X101680240Y-118820364D01*
X101480362Y-119020242D01*
X101324999Y-119252760D01*
X101169636Y-119020242D01*
X100969758Y-118820364D01*
X100734726Y-118663321D01*
X100473573Y-118555148D01*
X100196334Y-118500001D01*
X99913664Y-118500001D01*
X99636425Y-118555148D01*
X99375272Y-118663321D01*
X99140240Y-118820364D01*
X98940362Y-119020242D01*
X98784999Y-119252760D01*
X98629636Y-119020242D01*
X98429758Y-118820364D01*
X98194726Y-118663321D01*
X97933573Y-118555148D01*
X97656334Y-118500001D01*
X97373664Y-118500001D01*
X97096425Y-118555148D01*
X96835272Y-118663321D01*
X96600240Y-118820364D01*
X96400362Y-119020242D01*
X96244999Y-119252760D01*
X96089636Y-119020242D01*
X95889758Y-118820364D01*
X95654726Y-118663321D01*
X95393573Y-118555148D01*
X95116334Y-118500001D01*
X94833664Y-118500001D01*
X94556425Y-118555148D01*
X94295272Y-118663321D01*
X94060240Y-118820364D01*
X93860362Y-119020242D01*
X93704999Y-119252760D01*
X93549636Y-119020242D01*
X93349758Y-118820364D01*
X93114726Y-118663321D01*
X92853573Y-118555148D01*
X92576334Y-118500001D01*
X92293664Y-118500001D01*
X92016425Y-118555148D01*
X91755272Y-118663321D01*
X91520240Y-118820364D01*
X91320362Y-119020242D01*
X91164999Y-119252760D01*
X91009636Y-119020242D01*
X90809758Y-118820364D01*
X90574726Y-118663321D01*
X90313573Y-118555148D01*
X90036334Y-118500001D01*
X89753664Y-118500001D01*
X89476425Y-118555148D01*
X89215272Y-118663321D01*
X88980240Y-118820364D01*
X88780362Y-119020242D01*
X88624999Y-119252760D01*
X88469636Y-119020242D01*
X88269758Y-118820364D01*
X88034726Y-118663321D01*
X87773573Y-118555148D01*
X87496334Y-118500001D01*
X87213664Y-118500001D01*
X86936425Y-118555148D01*
X86675272Y-118663321D01*
X86440240Y-118820364D01*
X86240362Y-119020242D01*
X86084999Y-119252760D01*
X85929636Y-119020242D01*
X85729758Y-118820364D01*
X85494726Y-118663321D01*
X85233573Y-118555148D01*
X84956334Y-118500001D01*
X84673664Y-118500001D01*
X84396425Y-118555148D01*
X84135272Y-118663321D01*
X83900240Y-118820364D01*
X83700362Y-119020242D01*
X83544999Y-119252760D01*
X83389636Y-119020242D01*
X83189758Y-118820364D01*
X82954726Y-118663321D01*
X82693573Y-118555148D01*
X82416334Y-118500001D01*
X82133664Y-118500001D01*
X81856425Y-118555148D01*
X81595272Y-118663321D01*
X81360240Y-118820364D01*
X81160362Y-119020242D01*
X81003319Y-119255274D01*
X80895146Y-119516427D01*
X80839999Y-119793666D01*
X74320000Y-119793666D01*
X74320000Y-104553666D01*
X80839999Y-104553666D01*
X80839999Y-104836336D01*
X80895146Y-105113575D01*
X81003319Y-105374728D01*
X81160362Y-105609760D01*
X81360240Y-105809638D01*
X81595272Y-105966681D01*
X81856425Y-106074854D01*
X82133664Y-106130001D01*
X82416334Y-106130001D01*
X82693573Y-106074854D01*
X82954726Y-105966681D01*
X83189758Y-105809638D01*
X83389636Y-105609760D01*
X83544999Y-105377242D01*
X83700362Y-105609760D01*
X83900240Y-105809638D01*
X84135272Y-105966681D01*
X84396425Y-106074854D01*
X84673664Y-106130001D01*
X84956334Y-106130001D01*
X85233573Y-106074854D01*
X85494726Y-105966681D01*
X85729758Y-105809638D01*
X85929636Y-105609760D01*
X86084999Y-105377242D01*
X86240362Y-105609760D01*
X86440240Y-105809638D01*
X86675272Y-105966681D01*
X86936425Y-106074854D01*
X87213664Y-106130001D01*
X87496334Y-106130001D01*
X87773573Y-106074854D01*
X88034726Y-105966681D01*
X88269758Y-105809638D01*
X88469636Y-105609760D01*
X88624999Y-105377242D01*
X88780362Y-105609760D01*
X88980240Y-105809638D01*
X89215272Y-105966681D01*
X89476425Y-106074854D01*
X89753664Y-106130001D01*
X90036334Y-106130001D01*
X90313573Y-106074854D01*
X90574726Y-105966681D01*
X90809758Y-105809638D01*
X91009636Y-105609760D01*
X91164999Y-105377242D01*
X91320362Y-105609760D01*
X91520240Y-105809638D01*
X91549999Y-105829523D01*
X91550000Y-107631520D01*
X91545718Y-107674999D01*
X91562804Y-107848489D01*
X91613411Y-108015312D01*
X91695589Y-108169058D01*
X91778467Y-108270045D01*
X91778470Y-108270048D01*
X91806183Y-108303816D01*
X91839951Y-108331529D01*
X100253470Y-116745049D01*
X100281183Y-116778817D01*
X100314951Y-116806530D01*
X100314953Y-116806532D01*
X100386452Y-116865210D01*
X100415941Y-116889411D01*
X100569687Y-116971589D01*
X100736510Y-117022195D01*
X100866523Y-117035000D01*
X100866533Y-117035000D01*
X100909999Y-117039281D01*
X100953465Y-117035000D01*
X134364941Y-117035000D01*
X134470013Y-117192252D01*
X134697748Y-117419987D01*
X134965537Y-117598918D01*
X135263088Y-117722168D01*
X135578967Y-117785000D01*
X135901033Y-117785000D01*
X136216912Y-117722168D01*
X136514463Y-117598918D01*
X136782252Y-117419987D01*
X137009987Y-117192252D01*
X137188918Y-116924463D01*
X137312168Y-116626912D01*
X137375000Y-116311033D01*
X137375000Y-115988967D01*
X140605000Y-115988967D01*
X140605000Y-116311033D01*
X140667832Y-116626912D01*
X140791082Y-116924463D01*
X140970013Y-117192252D01*
X141197748Y-117419987D01*
X141465537Y-117598918D01*
X141763088Y-117722168D01*
X142078967Y-117785000D01*
X142401033Y-117785000D01*
X142716912Y-117722168D01*
X143014463Y-117598918D01*
X143282252Y-117419987D01*
X143509987Y-117192252D01*
X143688918Y-116924463D01*
X143812168Y-116626912D01*
X143875000Y-116311033D01*
X143875000Y-115988967D01*
X143812168Y-115673088D01*
X143688918Y-115375537D01*
X143509987Y-115107748D01*
X143282252Y-114880013D01*
X143014463Y-114701082D01*
X142716912Y-114577832D01*
X142401033Y-114515000D01*
X142078967Y-114515000D01*
X141763088Y-114577832D01*
X141465537Y-114701082D01*
X141197748Y-114880013D01*
X140970013Y-115107748D01*
X140791082Y-115375537D01*
X140667832Y-115673088D01*
X140605000Y-115988967D01*
X137375000Y-115988967D01*
X137312168Y-115673088D01*
X137188918Y-115375537D01*
X137009987Y-115107748D01*
X136782252Y-114880013D01*
X136514463Y-114701082D01*
X136216912Y-114577832D01*
X135901033Y-114515000D01*
X135578967Y-114515000D01*
X135263088Y-114577832D01*
X134965537Y-114701082D01*
X134697748Y-114880013D01*
X134470013Y-115107748D01*
X134364941Y-115265000D01*
X101276579Y-115265000D01*
X93319999Y-107308421D01*
X93319999Y-105829522D01*
X93349758Y-105809638D01*
X93549636Y-105609760D01*
X93704999Y-105377242D01*
X93860362Y-105609760D01*
X94060240Y-105809638D01*
X94295272Y-105966681D01*
X94556425Y-106074854D01*
X94833664Y-106130001D01*
X95116334Y-106130001D01*
X95393573Y-106074854D01*
X95654726Y-105966681D01*
X95889758Y-105809638D01*
X96089636Y-105609760D01*
X96244999Y-105377242D01*
X96400362Y-105609760D01*
X96600240Y-105809638D01*
X96630000Y-105829523D01*
X96629999Y-107631530D01*
X96625718Y-107674999D01*
X96629999Y-107718468D01*
X96629999Y-107718475D01*
X96642804Y-107848488D01*
X96693410Y-108015311D01*
X96775588Y-108169057D01*
X96886182Y-108303816D01*
X96919955Y-108331533D01*
X98403470Y-109815049D01*
X98431183Y-109848817D01*
X98464951Y-109876530D01*
X98464953Y-109876532D01*
X98536452Y-109935210D01*
X98565941Y-109959411D01*
X98719687Y-110041589D01*
X98886510Y-110092195D01*
X99016523Y-110105000D01*
X99016533Y-110105000D01*
X99059999Y-110109281D01*
X99103465Y-110105000D01*
X127873424Y-110105000D01*
X129310352Y-111541928D01*
X128690000Y-111541928D01*
X128565518Y-111554188D01*
X128445820Y-111590498D01*
X128335506Y-111649463D01*
X128238815Y-111728815D01*
X128159463Y-111825506D01*
X128100498Y-111935820D01*
X128078487Y-112008380D01*
X127946632Y-111876525D01*
X127703411Y-111714010D01*
X127433158Y-111602068D01*
X127146260Y-111545000D01*
X126853740Y-111545000D01*
X126566842Y-111602068D01*
X126296589Y-111714010D01*
X126053368Y-111876525D01*
X125846525Y-112083368D01*
X125684010Y-112326589D01*
X125572068Y-112596842D01*
X125515000Y-112883740D01*
X125515000Y-113176260D01*
X125572068Y-113463158D01*
X125684010Y-113733411D01*
X125846525Y-113976632D01*
X126053368Y-114183475D01*
X126296589Y-114345990D01*
X126566842Y-114457932D01*
X126853740Y-114515000D01*
X127146260Y-114515000D01*
X127433158Y-114457932D01*
X127703411Y-114345990D01*
X127946632Y-114183475D01*
X128078487Y-114051620D01*
X128100498Y-114124180D01*
X128159463Y-114234494D01*
X128238815Y-114331185D01*
X128335506Y-114410537D01*
X128445820Y-114469502D01*
X128565518Y-114505812D01*
X128690000Y-114518072D01*
X130390000Y-114518072D01*
X130514482Y-114505812D01*
X130634180Y-114469502D01*
X130744494Y-114410537D01*
X130841185Y-114331185D01*
X130920537Y-114234494D01*
X130979502Y-114124180D01*
X131015812Y-114004482D01*
X131028072Y-113880000D01*
X131028072Y-113259649D01*
X131393472Y-113625049D01*
X131421185Y-113658817D01*
X131454953Y-113686530D01*
X131454955Y-113686532D01*
X131555943Y-113769411D01*
X131709688Y-113851589D01*
X131803346Y-113880000D01*
X131876512Y-113902195D01*
X132006525Y-113915000D01*
X132006533Y-113915000D01*
X132050002Y-113919281D01*
X132093471Y-113915000D01*
X143683422Y-113915000D01*
X145571896Y-115803475D01*
X145535000Y-115988967D01*
X145535000Y-116311033D01*
X145597832Y-116626912D01*
X145721082Y-116924463D01*
X145900013Y-117192252D01*
X146127748Y-117419987D01*
X146395537Y-117598918D01*
X146693088Y-117722168D01*
X147008967Y-117785000D01*
X147331033Y-117785000D01*
X147646912Y-117722168D01*
X147944463Y-117598918D01*
X148212252Y-117419987D01*
X148439987Y-117192252D01*
X148618918Y-116924463D01*
X148742168Y-116626912D01*
X148805000Y-116311033D01*
X148805000Y-115988967D01*
X152035000Y-115988967D01*
X152035000Y-116311033D01*
X152097832Y-116626912D01*
X152221082Y-116924463D01*
X152400013Y-117192252D01*
X152627748Y-117419987D01*
X152895537Y-117598918D01*
X153193088Y-117722168D01*
X153508967Y-117785000D01*
X153831033Y-117785000D01*
X154146912Y-117722168D01*
X154444463Y-117598918D01*
X154712252Y-117419987D01*
X154939987Y-117192252D01*
X155118918Y-116924463D01*
X155242168Y-116626912D01*
X155305000Y-116311033D01*
X155305000Y-115988967D01*
X155242168Y-115673088D01*
X155118918Y-115375537D01*
X154939987Y-115107748D01*
X154712252Y-114880013D01*
X154444463Y-114701082D01*
X154146912Y-114577832D01*
X153831033Y-114515000D01*
X153508967Y-114515000D01*
X153193088Y-114577832D01*
X152895537Y-114701082D01*
X152627748Y-114880013D01*
X152400013Y-115107748D01*
X152221082Y-115375537D01*
X152097832Y-115673088D01*
X152035000Y-115988967D01*
X148805000Y-115988967D01*
X148742168Y-115673088D01*
X148618918Y-115375537D01*
X148439987Y-115107748D01*
X148212252Y-114880013D01*
X147944463Y-114701082D01*
X147646912Y-114577832D01*
X147331033Y-114515000D01*
X147008967Y-114515000D01*
X146823475Y-114551896D01*
X144706534Y-112434956D01*
X144678817Y-112401183D01*
X144544059Y-112290589D01*
X144390313Y-112208411D01*
X144223490Y-112157805D01*
X144093477Y-112145000D01*
X144093469Y-112145000D01*
X144050000Y-112140719D01*
X144006531Y-112145000D01*
X132416581Y-112145000D01*
X130600548Y-110328967D01*
X134105000Y-110328967D01*
X134105000Y-110651033D01*
X134167832Y-110966912D01*
X134291082Y-111264463D01*
X134470013Y-111532252D01*
X134697748Y-111759987D01*
X134965537Y-111938918D01*
X135263088Y-112062168D01*
X135578967Y-112125000D01*
X135901033Y-112125000D01*
X136216912Y-112062168D01*
X136514463Y-111938918D01*
X136782252Y-111759987D01*
X137009987Y-111532252D01*
X137188918Y-111264463D01*
X137312168Y-110966912D01*
X137375000Y-110651033D01*
X137375000Y-110328967D01*
X140605000Y-110328967D01*
X140605000Y-110651033D01*
X140667832Y-110966912D01*
X140791082Y-111264463D01*
X140970013Y-111532252D01*
X141197748Y-111759987D01*
X141465537Y-111938918D01*
X141763088Y-112062168D01*
X142078967Y-112125000D01*
X142401033Y-112125000D01*
X142716912Y-112062168D01*
X143014463Y-111938918D01*
X143282252Y-111759987D01*
X143509987Y-111532252D01*
X143688918Y-111264463D01*
X143812168Y-110966912D01*
X143875000Y-110651033D01*
X143875000Y-110328967D01*
X145535000Y-110328967D01*
X145535000Y-110651033D01*
X145597832Y-110966912D01*
X145721082Y-111264463D01*
X145900013Y-111532252D01*
X146127748Y-111759987D01*
X146395537Y-111938918D01*
X146693088Y-112062168D01*
X147008967Y-112125000D01*
X147331033Y-112125000D01*
X147646912Y-112062168D01*
X147944463Y-111938918D01*
X148212252Y-111759987D01*
X148439987Y-111532252D01*
X148618918Y-111264463D01*
X148742168Y-110966912D01*
X148805000Y-110651033D01*
X148805000Y-110328967D01*
X152035000Y-110328967D01*
X152035000Y-110651033D01*
X152097832Y-110966912D01*
X152221082Y-111264463D01*
X152400013Y-111532252D01*
X152627748Y-111759987D01*
X152895537Y-111938918D01*
X153193088Y-112062168D01*
X153508967Y-112125000D01*
X153831033Y-112125000D01*
X154146912Y-112062168D01*
X154444463Y-111938918D01*
X154712252Y-111759987D01*
X154939987Y-111532252D01*
X155118918Y-111264463D01*
X155242168Y-110966912D01*
X155305000Y-110651033D01*
X155305000Y-110328967D01*
X155242168Y-110013088D01*
X155118918Y-109715537D01*
X154939987Y-109447748D01*
X154712252Y-109220013D01*
X154444463Y-109041082D01*
X154146912Y-108917832D01*
X153831033Y-108855000D01*
X153508967Y-108855000D01*
X153193088Y-108917832D01*
X152895537Y-109041082D01*
X152627748Y-109220013D01*
X152400013Y-109447748D01*
X152221082Y-109715537D01*
X152097832Y-110013088D01*
X152035000Y-110328967D01*
X148805000Y-110328967D01*
X148742168Y-110013088D01*
X148618918Y-109715537D01*
X148439987Y-109447748D01*
X148212252Y-109220013D01*
X147944463Y-109041082D01*
X147646912Y-108917832D01*
X147331033Y-108855000D01*
X147008967Y-108855000D01*
X146693088Y-108917832D01*
X146395537Y-109041082D01*
X146127748Y-109220013D01*
X145900013Y-109447748D01*
X145721082Y-109715537D01*
X145597832Y-110013088D01*
X145535000Y-110328967D01*
X143875000Y-110328967D01*
X143812168Y-110013088D01*
X143688918Y-109715537D01*
X143509987Y-109447748D01*
X143282252Y-109220013D01*
X143014463Y-109041082D01*
X142716912Y-108917832D01*
X142401033Y-108855000D01*
X142078967Y-108855000D01*
X141763088Y-108917832D01*
X141465537Y-109041082D01*
X141197748Y-109220013D01*
X140970013Y-109447748D01*
X140791082Y-109715537D01*
X140667832Y-110013088D01*
X140605000Y-110328967D01*
X137375000Y-110328967D01*
X137312168Y-110013088D01*
X137188918Y-109715537D01*
X137009987Y-109447748D01*
X136782252Y-109220013D01*
X136514463Y-109041082D01*
X136216912Y-108917832D01*
X135901033Y-108855000D01*
X135578967Y-108855000D01*
X135263088Y-108917832D01*
X134965537Y-109041082D01*
X134697748Y-109220013D01*
X134470013Y-109447748D01*
X134291082Y-109715537D01*
X134167832Y-110013088D01*
X134105000Y-110328967D01*
X130600548Y-110328967D01*
X128896536Y-108624956D01*
X128868819Y-108591183D01*
X128734061Y-108480589D01*
X128580315Y-108398411D01*
X128413492Y-108347805D01*
X128283479Y-108335000D01*
X128283471Y-108335000D01*
X128240002Y-108330719D01*
X128196533Y-108335000D01*
X99426579Y-108335000D01*
X98399999Y-107308421D01*
X98399999Y-106345560D01*
X124974045Y-106345560D01*
X125035932Y-106581368D01*
X125277790Y-106694266D01*
X125537027Y-106757811D01*
X125803680Y-106769561D01*
X126067501Y-106729063D01*
X126318353Y-106637875D01*
X126424068Y-106581368D01*
X126485955Y-106345560D01*
X125730000Y-105589605D01*
X124974045Y-106345560D01*
X98399999Y-106345560D01*
X98399999Y-105829522D01*
X98429758Y-105809638D01*
X98629636Y-105609760D01*
X98784999Y-105377242D01*
X98940362Y-105609760D01*
X99140240Y-105809638D01*
X99375272Y-105966681D01*
X99636425Y-106074854D01*
X99913664Y-106130001D01*
X100196334Y-106130001D01*
X100473573Y-106074854D01*
X100734726Y-105966681D01*
X100969758Y-105809638D01*
X101169636Y-105609760D01*
X101324999Y-105377242D01*
X101480362Y-105609760D01*
X101680240Y-105809638D01*
X101915272Y-105966681D01*
X102176425Y-106074854D01*
X102453664Y-106130001D01*
X102736334Y-106130001D01*
X103013573Y-106074854D01*
X103274726Y-105966681D01*
X103509758Y-105809638D01*
X103709636Y-105609760D01*
X103864999Y-105377242D01*
X104020362Y-105609760D01*
X104220240Y-105809638D01*
X104455272Y-105966681D01*
X104716425Y-106074854D01*
X104993664Y-106130001D01*
X105276334Y-106130001D01*
X105553573Y-106074854D01*
X105814726Y-105966681D01*
X106049758Y-105809638D01*
X106249636Y-105609760D01*
X106404999Y-105377242D01*
X106560362Y-105609760D01*
X106760240Y-105809638D01*
X106995272Y-105966681D01*
X107256425Y-106074854D01*
X107533664Y-106130001D01*
X107816334Y-106130001D01*
X108093573Y-106074854D01*
X108354726Y-105966681D01*
X108589758Y-105809638D01*
X108789636Y-105609760D01*
X108944999Y-105377242D01*
X109100362Y-105609760D01*
X109300240Y-105809638D01*
X109535272Y-105966681D01*
X109796425Y-106074854D01*
X110073664Y-106130001D01*
X110356334Y-106130001D01*
X110633573Y-106074854D01*
X110894726Y-105966681D01*
X111129758Y-105809638D01*
X111329636Y-105609760D01*
X111484999Y-105377242D01*
X111640362Y-105609760D01*
X111840240Y-105809638D01*
X112075272Y-105966681D01*
X112336425Y-106074854D01*
X112613664Y-106130001D01*
X112896334Y-106130001D01*
X113173573Y-106074854D01*
X113434726Y-105966681D01*
X113669758Y-105809638D01*
X113869636Y-105609760D01*
X114024999Y-105377242D01*
X114180362Y-105609760D01*
X114380240Y-105809638D01*
X114615272Y-105966681D01*
X114876425Y-106074854D01*
X115153664Y-106130001D01*
X115436334Y-106130001D01*
X115713573Y-106074854D01*
X115974726Y-105966681D01*
X116209758Y-105809638D01*
X116408356Y-105611040D01*
X116409187Y-105619483D01*
X116445497Y-105739181D01*
X116504462Y-105849495D01*
X116583814Y-105946186D01*
X116680505Y-106025538D01*
X116790819Y-106084503D01*
X116910517Y-106120813D01*
X117034999Y-106133073D01*
X118634999Y-106133073D01*
X118759481Y-106120813D01*
X118879179Y-106084503D01*
X118989493Y-106025538D01*
X119086184Y-105946186D01*
X119165536Y-105849495D01*
X119224501Y-105739181D01*
X119260811Y-105619483D01*
X119273071Y-105495001D01*
X119273071Y-105483680D01*
X124370439Y-105483680D01*
X124410937Y-105747501D01*
X124502125Y-105998353D01*
X124558632Y-106104068D01*
X124794440Y-106165955D01*
X125550395Y-105410000D01*
X125909605Y-105410000D01*
X126665560Y-106165955D01*
X126901368Y-106104068D01*
X127014266Y-105862210D01*
X127077811Y-105602973D01*
X127089561Y-105336320D01*
X127049063Y-105072499D01*
X126957875Y-104821647D01*
X126901368Y-104715932D01*
X126665560Y-104654045D01*
X125909605Y-105410000D01*
X125550395Y-105410000D01*
X124794440Y-104654045D01*
X124558632Y-104715932D01*
X124445734Y-104957790D01*
X124382189Y-105217027D01*
X124370439Y-105483680D01*
X119273071Y-105483680D01*
X119273071Y-103895001D01*
X119260811Y-103770519D01*
X119224501Y-103650821D01*
X119165536Y-103540507D01*
X119086184Y-103443816D01*
X118989493Y-103364464D01*
X118879179Y-103305499D01*
X118759481Y-103269189D01*
X118634999Y-103256929D01*
X117034999Y-103256929D01*
X116910517Y-103269189D01*
X116790819Y-103305499D01*
X116680505Y-103364464D01*
X116583814Y-103443816D01*
X116504462Y-103540507D01*
X116445497Y-103650821D01*
X116409187Y-103770519D01*
X116408356Y-103778962D01*
X116209758Y-103580364D01*
X115974726Y-103423321D01*
X115713573Y-103315148D01*
X115436334Y-103260001D01*
X115153664Y-103260001D01*
X114876425Y-103315148D01*
X114615272Y-103423321D01*
X114380240Y-103580364D01*
X114180362Y-103780242D01*
X114024999Y-104012760D01*
X113869636Y-103780242D01*
X113669758Y-103580364D01*
X113434726Y-103423321D01*
X113173573Y-103315148D01*
X112896334Y-103260001D01*
X112613664Y-103260001D01*
X112336425Y-103315148D01*
X112075272Y-103423321D01*
X111840240Y-103580364D01*
X111640362Y-103780242D01*
X111484999Y-104012760D01*
X111329636Y-103780242D01*
X111129758Y-103580364D01*
X110894726Y-103423321D01*
X110633573Y-103315148D01*
X110356334Y-103260001D01*
X110073664Y-103260001D01*
X109796425Y-103315148D01*
X109535272Y-103423321D01*
X109300240Y-103580364D01*
X109100362Y-103780242D01*
X108944999Y-104012760D01*
X108789636Y-103780242D01*
X108589758Y-103580364D01*
X108354726Y-103423321D01*
X108093573Y-103315148D01*
X107816334Y-103260001D01*
X107533664Y-103260001D01*
X107256425Y-103315148D01*
X106995272Y-103423321D01*
X106760240Y-103580364D01*
X106560362Y-103780242D01*
X106404999Y-104012760D01*
X106249636Y-103780242D01*
X106049758Y-103580364D01*
X105814726Y-103423321D01*
X105553573Y-103315148D01*
X105276334Y-103260001D01*
X104993664Y-103260001D01*
X104716425Y-103315148D01*
X104455272Y-103423321D01*
X104220240Y-103580364D01*
X104020362Y-103780242D01*
X103864999Y-104012760D01*
X103709636Y-103780242D01*
X103509758Y-103580364D01*
X103274726Y-103423321D01*
X103013573Y-103315148D01*
X102736334Y-103260001D01*
X102453664Y-103260001D01*
X102176425Y-103315148D01*
X101915272Y-103423321D01*
X101680240Y-103580364D01*
X101480362Y-103780242D01*
X101324999Y-104012760D01*
X101169636Y-103780242D01*
X100969758Y-103580364D01*
X100734726Y-103423321D01*
X100473573Y-103315148D01*
X100196334Y-103260001D01*
X99913664Y-103260001D01*
X99636425Y-103315148D01*
X99375272Y-103423321D01*
X99140240Y-103580364D01*
X98940362Y-103780242D01*
X98784999Y-104012760D01*
X98629636Y-103780242D01*
X98429758Y-103580364D01*
X98194726Y-103423321D01*
X97933573Y-103315148D01*
X97656334Y-103260001D01*
X97373664Y-103260001D01*
X97096425Y-103315148D01*
X96835272Y-103423321D01*
X96600240Y-103580364D01*
X96400362Y-103780242D01*
X96244999Y-104012760D01*
X96089636Y-103780242D01*
X95889758Y-103580364D01*
X95654726Y-103423321D01*
X95393573Y-103315148D01*
X95116334Y-103260001D01*
X94833664Y-103260001D01*
X94556425Y-103315148D01*
X94295272Y-103423321D01*
X94060240Y-103580364D01*
X93860362Y-103780242D01*
X93704999Y-104012760D01*
X93549636Y-103780242D01*
X93349758Y-103580364D01*
X93114726Y-103423321D01*
X92853573Y-103315148D01*
X92576334Y-103260001D01*
X92293664Y-103260001D01*
X92016425Y-103315148D01*
X91755272Y-103423321D01*
X91520240Y-103580364D01*
X91320362Y-103780242D01*
X91164999Y-104012760D01*
X91009636Y-103780242D01*
X90809758Y-103580364D01*
X90574726Y-103423321D01*
X90313573Y-103315148D01*
X90036334Y-103260001D01*
X89753664Y-103260001D01*
X89476425Y-103315148D01*
X89215272Y-103423321D01*
X88980240Y-103580364D01*
X88780362Y-103780242D01*
X88624999Y-104012760D01*
X88469636Y-103780242D01*
X88269758Y-103580364D01*
X88034726Y-103423321D01*
X87773573Y-103315148D01*
X87496334Y-103260001D01*
X87213664Y-103260001D01*
X86936425Y-103315148D01*
X86675272Y-103423321D01*
X86440240Y-103580364D01*
X86240362Y-103780242D01*
X86084999Y-104012760D01*
X85929636Y-103780242D01*
X85729758Y-103580364D01*
X85494726Y-103423321D01*
X85233573Y-103315148D01*
X84956334Y-103260001D01*
X84673664Y-103260001D01*
X84396425Y-103315148D01*
X84135272Y-103423321D01*
X83900240Y-103580364D01*
X83700362Y-103780242D01*
X83544999Y-104012760D01*
X83389636Y-103780242D01*
X83189758Y-103580364D01*
X82954726Y-103423321D01*
X82693573Y-103315148D01*
X82416334Y-103260001D01*
X82133664Y-103260001D01*
X81856425Y-103315148D01*
X81595272Y-103423321D01*
X81360240Y-103580364D01*
X81160362Y-103780242D01*
X81003319Y-104015274D01*
X80895146Y-104276427D01*
X80839999Y-104553666D01*
X74320000Y-104553666D01*
X74320000Y-102020000D01*
X124241928Y-102020000D01*
X124245000Y-102584250D01*
X124403750Y-102743000D01*
X125603000Y-102743000D01*
X125603000Y-101543750D01*
X125444250Y-101385000D01*
X124880000Y-101381928D01*
X124755518Y-101394188D01*
X124635820Y-101430498D01*
X124525506Y-101489463D01*
X124428815Y-101568815D01*
X124349463Y-101665506D01*
X124290498Y-101775820D01*
X124254188Y-101895518D01*
X124241928Y-102020000D01*
X74320000Y-102020000D01*
X74320000Y-97350422D01*
X75570901Y-97350422D01*
X75570901Y-97770980D01*
X75652948Y-98183457D01*
X75813889Y-98572003D01*
X76047538Y-98921684D01*
X76344918Y-99219064D01*
X76694599Y-99452713D01*
X77083145Y-99613654D01*
X77495622Y-99695701D01*
X77916180Y-99695701D01*
X78328657Y-99613654D01*
X78717203Y-99452713D01*
X79066884Y-99219064D01*
X79364264Y-98921684D01*
X79597913Y-98572003D01*
X79758854Y-98183457D01*
X79840901Y-97770980D01*
X79840901Y-97350422D01*
X79758854Y-96937945D01*
X79597913Y-96549399D01*
X79364264Y-96199718D01*
X79066884Y-95902338D01*
X78717203Y-95668689D01*
X78328657Y-95507748D01*
X77916180Y-95425701D01*
X77495622Y-95425701D01*
X77083145Y-95507748D01*
X76694599Y-95668689D01*
X76344918Y-95902338D01*
X76047538Y-96199718D01*
X75813889Y-96549399D01*
X75652948Y-96937945D01*
X75570901Y-97350422D01*
X74320000Y-97350422D01*
X74320000Y-66349722D01*
X75570901Y-66349722D01*
X75570901Y-66770280D01*
X75652948Y-67182757D01*
X75813889Y-67571303D01*
X76047538Y-67920984D01*
X76344918Y-68218364D01*
X76694599Y-68452013D01*
X77083145Y-68612954D01*
X77495622Y-68695001D01*
X77916180Y-68695001D01*
X78328657Y-68612954D01*
X78717203Y-68452013D01*
X79066884Y-68218364D01*
X79364264Y-67920984D01*
X79597913Y-67571303D01*
X79758854Y-67182757D01*
X79840901Y-66770280D01*
X79840901Y-66349722D01*
X79758854Y-65937245D01*
X79597913Y-65548699D01*
X79405012Y-65260001D01*
X81666929Y-65260001D01*
X81666929Y-67860001D01*
X81679189Y-67984483D01*
X81715499Y-68104181D01*
X81774464Y-68214495D01*
X81853816Y-68311186D01*
X81950507Y-68390538D01*
X82060821Y-68449503D01*
X82180519Y-68485813D01*
X82305001Y-68498073D01*
X84105001Y-68498073D01*
X84229483Y-68485813D01*
X84349181Y-68449503D01*
X84459495Y-68390538D01*
X84556186Y-68311186D01*
X84635538Y-68214495D01*
X84694503Y-68104181D01*
X84700419Y-68084680D01*
X84749395Y-68135211D01*
X84997797Y-68306863D01*
X85274914Y-68426756D01*
X85380261Y-68451037D01*
X85618001Y-68330379D01*
X85618001Y-66687001D01*
X85598001Y-66687001D01*
X85598001Y-66433001D01*
X85618001Y-66433001D01*
X85618001Y-64789623D01*
X85872001Y-64789623D01*
X85872001Y-66433001D01*
X85892001Y-66433001D01*
X85892001Y-66687001D01*
X85872001Y-66687001D01*
X85872001Y-68330379D01*
X86109741Y-68451037D01*
X86215088Y-68426756D01*
X86492205Y-68306863D01*
X86740607Y-68135211D01*
X86950749Y-67918397D01*
X87010220Y-67826310D01*
X87194340Y-68050662D01*
X87400001Y-68219443D01*
X87400002Y-70461522D01*
X87395720Y-70505001D01*
X87412806Y-70678491D01*
X87463413Y-70845314D01*
X87545591Y-70999060D01*
X87628469Y-71100047D01*
X87628472Y-71100050D01*
X87656185Y-71133818D01*
X87689953Y-71161531D01*
X112373470Y-95845049D01*
X112401183Y-95878817D01*
X112434951Y-95906530D01*
X112434953Y-95906532D01*
X112506452Y-95965210D01*
X112535941Y-95989411D01*
X112689687Y-96071589D01*
X112856510Y-96122195D01*
X112986523Y-96135000D01*
X112986533Y-96135000D01*
X113029999Y-96139281D01*
X113073465Y-96135000D01*
X124093422Y-96135000D01*
X127385000Y-99426579D01*
X127385001Y-101838740D01*
X127217503Y-102006238D01*
X127216818Y-102007264D01*
X127205812Y-101895518D01*
X127169502Y-101775820D01*
X127110537Y-101665506D01*
X127031185Y-101568815D01*
X126934494Y-101489463D01*
X126824180Y-101430498D01*
X126704482Y-101394188D01*
X126580000Y-101381928D01*
X126015750Y-101385000D01*
X125857000Y-101543750D01*
X125857000Y-102743000D01*
X125877000Y-102743000D01*
X125877000Y-102997000D01*
X125857000Y-102997000D01*
X125857000Y-103017000D01*
X125603000Y-103017000D01*
X125603000Y-102997000D01*
X124403750Y-102997000D01*
X124245000Y-103155750D01*
X124241928Y-103720000D01*
X124254188Y-103844482D01*
X124290498Y-103964180D01*
X124349463Y-104074494D01*
X124428815Y-104171185D01*
X124525506Y-104250537D01*
X124635820Y-104309502D01*
X124755518Y-104345812D01*
X124880000Y-104358072D01*
X125004764Y-104357393D01*
X124974045Y-104474440D01*
X125730000Y-105230395D01*
X126485955Y-104474440D01*
X126455236Y-104357393D01*
X126580000Y-104358072D01*
X126704482Y-104345812D01*
X126824180Y-104309502D01*
X126934494Y-104250537D01*
X127031185Y-104171185D01*
X127110537Y-104074494D01*
X127169502Y-103964180D01*
X127205812Y-103844482D01*
X127216818Y-103732736D01*
X127217503Y-103733762D01*
X127406238Y-103922497D01*
X127628167Y-104070785D01*
X127874761Y-104172928D01*
X128136544Y-104225000D01*
X128403456Y-104225000D01*
X128665239Y-104172928D01*
X128911833Y-104070785D01*
X129133762Y-103922497D01*
X129322497Y-103733762D01*
X129323182Y-103732736D01*
X129334188Y-103844482D01*
X129370498Y-103964180D01*
X129429463Y-104074494D01*
X129508815Y-104171185D01*
X129605506Y-104250537D01*
X129715820Y-104309502D01*
X129835518Y-104345812D01*
X129947264Y-104356818D01*
X129946238Y-104357503D01*
X129757503Y-104546238D01*
X129609215Y-104768167D01*
X129507072Y-105014761D01*
X129455000Y-105276544D01*
X129455000Y-105543456D01*
X129507072Y-105805239D01*
X129609215Y-106051833D01*
X129757503Y-106273762D01*
X129946238Y-106462497D01*
X130168167Y-106610785D01*
X130414761Y-106712928D01*
X130676544Y-106765000D01*
X130943456Y-106765000D01*
X131205239Y-106712928D01*
X131451833Y-106610785D01*
X131673762Y-106462497D01*
X131862497Y-106273762D01*
X132010785Y-106051833D01*
X132103099Y-105828967D01*
X134105000Y-105828967D01*
X134105000Y-106151033D01*
X134167832Y-106466912D01*
X134291082Y-106764463D01*
X134470013Y-107032252D01*
X134697748Y-107259987D01*
X134965537Y-107438918D01*
X135263088Y-107562168D01*
X135578967Y-107625000D01*
X135901033Y-107625000D01*
X136216912Y-107562168D01*
X136514463Y-107438918D01*
X136782252Y-107259987D01*
X137009987Y-107032252D01*
X137188918Y-106764463D01*
X137312168Y-106466912D01*
X137375000Y-106151033D01*
X137375000Y-105828967D01*
X140605000Y-105828967D01*
X140605000Y-106151033D01*
X140667832Y-106466912D01*
X140791082Y-106764463D01*
X140970013Y-107032252D01*
X141197748Y-107259987D01*
X141465537Y-107438918D01*
X141763088Y-107562168D01*
X142078967Y-107625000D01*
X142401033Y-107625000D01*
X142716912Y-107562168D01*
X143014463Y-107438918D01*
X143282252Y-107259987D01*
X143509987Y-107032252D01*
X143688918Y-106764463D01*
X143812168Y-106466912D01*
X143875000Y-106151033D01*
X143875000Y-105828967D01*
X145535000Y-105828967D01*
X145535000Y-106151033D01*
X145597832Y-106466912D01*
X145721082Y-106764463D01*
X145900013Y-107032252D01*
X146127748Y-107259987D01*
X146395537Y-107438918D01*
X146693088Y-107562168D01*
X147008967Y-107625000D01*
X147331033Y-107625000D01*
X147646912Y-107562168D01*
X147944463Y-107438918D01*
X148212252Y-107259987D01*
X148439987Y-107032252D01*
X148618918Y-106764463D01*
X148742168Y-106466912D01*
X148805000Y-106151033D01*
X148805000Y-105828967D01*
X152035000Y-105828967D01*
X152035000Y-106151033D01*
X152097832Y-106466912D01*
X152221082Y-106764463D01*
X152400013Y-107032252D01*
X152627748Y-107259987D01*
X152895537Y-107438918D01*
X153193088Y-107562168D01*
X153508967Y-107625000D01*
X153831033Y-107625000D01*
X154146912Y-107562168D01*
X154444463Y-107438918D01*
X154712252Y-107259987D01*
X154939987Y-107032252D01*
X155118918Y-106764463D01*
X155242168Y-106466912D01*
X155305000Y-106151033D01*
X155305000Y-105828967D01*
X155242168Y-105513088D01*
X155118918Y-105215537D01*
X154939987Y-104947748D01*
X154712252Y-104720013D01*
X154444463Y-104541082D01*
X154146912Y-104417832D01*
X153831033Y-104355000D01*
X153508967Y-104355000D01*
X153193088Y-104417832D01*
X152895537Y-104541082D01*
X152627748Y-104720013D01*
X152400013Y-104947748D01*
X152221082Y-105215537D01*
X152097832Y-105513088D01*
X152035000Y-105828967D01*
X148805000Y-105828967D01*
X148742168Y-105513088D01*
X148618918Y-105215537D01*
X148439987Y-104947748D01*
X148212252Y-104720013D01*
X147944463Y-104541082D01*
X147646912Y-104417832D01*
X147331033Y-104355000D01*
X147008967Y-104355000D01*
X146693088Y-104417832D01*
X146395537Y-104541082D01*
X146127748Y-104720013D01*
X145900013Y-104947748D01*
X145721082Y-105215537D01*
X145597832Y-105513088D01*
X145535000Y-105828967D01*
X143875000Y-105828967D01*
X143812168Y-105513088D01*
X143688918Y-105215537D01*
X143509987Y-104947748D01*
X143282252Y-104720013D01*
X143014463Y-104541082D01*
X142716912Y-104417832D01*
X142401033Y-104355000D01*
X142078967Y-104355000D01*
X141763088Y-104417832D01*
X141465537Y-104541082D01*
X141197748Y-104720013D01*
X140970013Y-104947748D01*
X140791082Y-105215537D01*
X140667832Y-105513088D01*
X140605000Y-105828967D01*
X137375000Y-105828967D01*
X137312168Y-105513088D01*
X137188918Y-105215537D01*
X137009987Y-104947748D01*
X136782252Y-104720013D01*
X136514463Y-104541082D01*
X136216912Y-104417832D01*
X135901033Y-104355000D01*
X135578967Y-104355000D01*
X135263088Y-104417832D01*
X134965537Y-104541082D01*
X134697748Y-104720013D01*
X134470013Y-104947748D01*
X134291082Y-105215537D01*
X134167832Y-105513088D01*
X134105000Y-105828967D01*
X132103099Y-105828967D01*
X132112928Y-105805239D01*
X132165000Y-105543456D01*
X132165000Y-105276544D01*
X132112928Y-105014761D01*
X132010785Y-104768167D01*
X131862497Y-104546238D01*
X131673762Y-104357503D01*
X131672736Y-104356818D01*
X131784482Y-104345812D01*
X131904180Y-104309502D01*
X132014494Y-104250537D01*
X132111185Y-104171185D01*
X132190537Y-104074494D01*
X132249502Y-103964180D01*
X132285812Y-103844482D01*
X132298072Y-103720000D01*
X132298072Y-102020000D01*
X132285812Y-101895518D01*
X132249502Y-101775820D01*
X132190537Y-101665506D01*
X132111185Y-101568815D01*
X132014494Y-101489463D01*
X131904180Y-101430498D01*
X131784482Y-101394188D01*
X131660000Y-101381928D01*
X129960000Y-101381928D01*
X129835518Y-101394188D01*
X129715820Y-101430498D01*
X129605506Y-101489463D01*
X129508815Y-101568815D01*
X129429463Y-101665506D01*
X129370498Y-101775820D01*
X129334188Y-101895518D01*
X129323182Y-102007264D01*
X129322497Y-102006238D01*
X129155000Y-101838741D01*
X129155000Y-99103469D01*
X129159281Y-99060000D01*
X129155000Y-99016531D01*
X129155000Y-99016523D01*
X129142195Y-98886510D01*
X129091589Y-98719686D01*
X129009411Y-98565941D01*
X128926532Y-98464953D01*
X128926530Y-98464951D01*
X128898817Y-98431183D01*
X128865050Y-98403471D01*
X127812001Y-97350422D01*
X150569481Y-97350422D01*
X150569481Y-97770980D01*
X150651528Y-98183457D01*
X150812469Y-98572003D01*
X151046118Y-98921684D01*
X151343498Y-99219064D01*
X151693179Y-99452713D01*
X152081725Y-99613654D01*
X152494202Y-99695701D01*
X152914760Y-99695701D01*
X153327237Y-99613654D01*
X153715783Y-99452713D01*
X154065464Y-99219064D01*
X154362844Y-98921684D01*
X154596493Y-98572003D01*
X154757434Y-98183457D01*
X154839481Y-97770980D01*
X154839481Y-97350422D01*
X154757434Y-96937945D01*
X154596493Y-96549399D01*
X154362844Y-96199718D01*
X154065464Y-95902338D01*
X153715783Y-95668689D01*
X153327237Y-95507748D01*
X152914760Y-95425701D01*
X152494202Y-95425701D01*
X152081725Y-95507748D01*
X151693179Y-95668689D01*
X151343498Y-95902338D01*
X151046118Y-96199718D01*
X150812469Y-96549399D01*
X150651528Y-96937945D01*
X150569481Y-97350422D01*
X127812001Y-97350422D01*
X125116534Y-94654956D01*
X125088817Y-94621183D01*
X124954059Y-94510589D01*
X124800313Y-94428411D01*
X124633490Y-94377805D01*
X124503477Y-94365000D01*
X124503469Y-94365000D01*
X124460000Y-94360719D01*
X124416531Y-94365000D01*
X113396579Y-94365000D01*
X90010244Y-70978665D01*
X123025000Y-70978665D01*
X123025000Y-71261335D01*
X123080147Y-71538574D01*
X123188320Y-71799727D01*
X123345363Y-72034759D01*
X123545241Y-72234637D01*
X123780273Y-72391680D01*
X124041426Y-72499853D01*
X124318665Y-72555000D01*
X124601335Y-72555000D01*
X124878574Y-72499853D01*
X125139727Y-72391680D01*
X125374759Y-72234637D01*
X125574637Y-72034759D01*
X125731680Y-71799727D01*
X125839853Y-71538574D01*
X125895000Y-71261335D01*
X125895000Y-70978665D01*
X135725000Y-70978665D01*
X135725000Y-71261335D01*
X135780147Y-71538574D01*
X135888320Y-71799727D01*
X136045363Y-72034759D01*
X136245241Y-72234637D01*
X136480273Y-72391680D01*
X136741426Y-72499853D01*
X137018665Y-72555000D01*
X137301335Y-72555000D01*
X137578574Y-72499853D01*
X137839727Y-72391680D01*
X138074759Y-72234637D01*
X138274637Y-72034759D01*
X138431680Y-71799727D01*
X138539853Y-71538574D01*
X138595000Y-71261335D01*
X138595000Y-70978665D01*
X138539853Y-70701426D01*
X138431680Y-70440273D01*
X138274637Y-70205241D01*
X138074759Y-70005363D01*
X137839727Y-69848320D01*
X137578574Y-69740147D01*
X137301335Y-69685000D01*
X137018665Y-69685000D01*
X136741426Y-69740147D01*
X136480273Y-69848320D01*
X136245241Y-70005363D01*
X136045363Y-70205241D01*
X135888320Y-70440273D01*
X135780147Y-70701426D01*
X135725000Y-70978665D01*
X125895000Y-70978665D01*
X125839853Y-70701426D01*
X125731680Y-70440273D01*
X125574637Y-70205241D01*
X125374759Y-70005363D01*
X125139727Y-69848320D01*
X124878574Y-69740147D01*
X124601335Y-69685000D01*
X124318665Y-69685000D01*
X124041426Y-69740147D01*
X123780273Y-69848320D01*
X123545241Y-70005363D01*
X123345363Y-70205241D01*
X123188320Y-70440273D01*
X123080147Y-70701426D01*
X123025000Y-70978665D01*
X90010244Y-70978665D01*
X89170001Y-70138423D01*
X89170001Y-68219443D01*
X89375662Y-68050662D01*
X89555001Y-67832136D01*
X89734340Y-68050662D01*
X89968075Y-68242482D01*
X90234741Y-68385018D01*
X90524089Y-68472791D01*
X90825001Y-68502428D01*
X91125914Y-68472791D01*
X91415262Y-68385018D01*
X91681928Y-68242482D01*
X91915662Y-68050662D01*
X92095001Y-67832136D01*
X92274340Y-68050662D01*
X92508075Y-68242482D01*
X92774741Y-68385018D01*
X93064089Y-68472791D01*
X93365001Y-68502428D01*
X93665914Y-68472791D01*
X93955262Y-68385018D01*
X94221928Y-68242482D01*
X94455662Y-68050662D01*
X94635001Y-67832136D01*
X94814340Y-68050662D01*
X95048075Y-68242482D01*
X95314741Y-68385018D01*
X95604089Y-68472791D01*
X95905001Y-68502428D01*
X96205914Y-68472791D01*
X96495262Y-68385018D01*
X96761928Y-68242482D01*
X96995662Y-68050662D01*
X97175001Y-67832136D01*
X97354340Y-68050662D01*
X97588075Y-68242482D01*
X97854741Y-68385018D01*
X98144089Y-68472791D01*
X98445001Y-68502428D01*
X98745914Y-68472791D01*
X99035262Y-68385018D01*
X99301928Y-68242482D01*
X99535662Y-68050662D01*
X99715001Y-67832136D01*
X99894340Y-68050662D01*
X100128075Y-68242482D01*
X100394741Y-68385018D01*
X100684089Y-68472791D01*
X100985001Y-68502428D01*
X101285914Y-68472791D01*
X101575262Y-68385018D01*
X101841928Y-68242482D01*
X102075662Y-68050662D01*
X102255001Y-67832136D01*
X102434340Y-68050662D01*
X102668075Y-68242482D01*
X102934741Y-68385018D01*
X103224089Y-68472791D01*
X103525001Y-68502428D01*
X103825914Y-68472791D01*
X104115262Y-68385018D01*
X104381928Y-68242482D01*
X104615662Y-68050662D01*
X104795001Y-67832136D01*
X104974340Y-68050662D01*
X105208075Y-68242482D01*
X105474741Y-68385018D01*
X105764089Y-68472791D01*
X106065001Y-68502428D01*
X106365914Y-68472791D01*
X106655262Y-68385018D01*
X106921928Y-68242482D01*
X107155662Y-68050662D01*
X107335001Y-67832136D01*
X107514340Y-68050662D01*
X107748075Y-68242482D01*
X108014741Y-68385018D01*
X108304089Y-68472791D01*
X108605001Y-68502428D01*
X108905914Y-68472791D01*
X109195262Y-68385018D01*
X109461928Y-68242482D01*
X109695662Y-68050662D01*
X109875001Y-67832136D01*
X110054340Y-68050662D01*
X110288075Y-68242482D01*
X110554741Y-68385018D01*
X110844089Y-68472791D01*
X111145001Y-68502428D01*
X111445914Y-68472791D01*
X111735262Y-68385018D01*
X112001928Y-68242482D01*
X112235662Y-68050662D01*
X112415001Y-67832136D01*
X112594340Y-68050662D01*
X112828075Y-68242482D01*
X113094741Y-68385018D01*
X113384089Y-68472791D01*
X113685001Y-68502428D01*
X113985914Y-68472791D01*
X114275262Y-68385018D01*
X114541928Y-68242482D01*
X114775662Y-68050662D01*
X114955001Y-67832136D01*
X115134340Y-68050662D01*
X115368075Y-68242482D01*
X115634741Y-68385018D01*
X115924089Y-68472791D01*
X116225001Y-68502428D01*
X116525914Y-68472791D01*
X116815262Y-68385018D01*
X117081928Y-68242482D01*
X117315662Y-68050662D01*
X117499782Y-67826310D01*
X117559253Y-67918397D01*
X117769395Y-68135211D01*
X118017797Y-68306863D01*
X118294914Y-68426756D01*
X118400261Y-68451037D01*
X118638001Y-68330379D01*
X118638001Y-66687001D01*
X118618001Y-66687001D01*
X118618001Y-66433001D01*
X118638001Y-66433001D01*
X118638001Y-64789623D01*
X118892001Y-64789623D01*
X118892001Y-66433001D01*
X118912001Y-66433001D01*
X118912001Y-66687001D01*
X118892001Y-66687001D01*
X118892001Y-68330379D01*
X119129741Y-68451037D01*
X119235088Y-68426756D01*
X119512205Y-68306863D01*
X119760607Y-68135211D01*
X119970749Y-67918397D01*
X120030220Y-67826310D01*
X120214340Y-68050662D01*
X120448075Y-68242482D01*
X120714741Y-68385018D01*
X121004089Y-68472791D01*
X121305001Y-68502428D01*
X121605914Y-68472791D01*
X121895262Y-68385018D01*
X122161928Y-68242482D01*
X122395662Y-68050662D01*
X122587482Y-67816928D01*
X122730018Y-67550262D01*
X122817791Y-67260914D01*
X122840001Y-67035408D01*
X122840001Y-66349722D01*
X150570001Y-66349722D01*
X150570001Y-66770280D01*
X150652048Y-67182757D01*
X150812989Y-67571303D01*
X151046638Y-67920984D01*
X151344018Y-68218364D01*
X151693699Y-68452013D01*
X152082245Y-68612954D01*
X152494722Y-68695001D01*
X152915280Y-68695001D01*
X153327757Y-68612954D01*
X153716303Y-68452013D01*
X154065984Y-68218364D01*
X154363364Y-67920984D01*
X154597013Y-67571303D01*
X154757954Y-67182757D01*
X154840001Y-66770280D01*
X154840001Y-66349722D01*
X154757954Y-65937245D01*
X154597013Y-65548699D01*
X154363364Y-65199018D01*
X154065984Y-64901638D01*
X153716303Y-64667989D01*
X153327757Y-64507048D01*
X152915280Y-64425001D01*
X152494722Y-64425001D01*
X152082245Y-64507048D01*
X151693699Y-64667989D01*
X151344018Y-64901638D01*
X151046638Y-65199018D01*
X150812989Y-65548699D01*
X150652048Y-65937245D01*
X150570001Y-66349722D01*
X122840001Y-66349722D01*
X122840001Y-66084593D01*
X122817791Y-65859088D01*
X122730018Y-65569740D01*
X122587482Y-65303074D01*
X122395662Y-65069340D01*
X122161927Y-64877520D01*
X121895261Y-64734984D01*
X121605913Y-64647211D01*
X121305001Y-64617574D01*
X121004088Y-64647211D01*
X120714740Y-64734984D01*
X120448074Y-64877520D01*
X120214340Y-65069340D01*
X120030220Y-65293693D01*
X119970749Y-65201605D01*
X119760607Y-64984791D01*
X119512205Y-64813139D01*
X119235088Y-64693246D01*
X119129741Y-64668965D01*
X118892001Y-64789623D01*
X118638001Y-64789623D01*
X118400261Y-64668965D01*
X118294914Y-64693246D01*
X118017797Y-64813139D01*
X117769395Y-64984791D01*
X117559253Y-65201605D01*
X117499782Y-65293692D01*
X117315662Y-65069340D01*
X117081927Y-64877520D01*
X116815261Y-64734984D01*
X116525913Y-64647211D01*
X116225001Y-64617574D01*
X115924088Y-64647211D01*
X115634740Y-64734984D01*
X115368074Y-64877520D01*
X115134340Y-65069340D01*
X114955001Y-65287866D01*
X114775662Y-65069340D01*
X114541927Y-64877520D01*
X114275261Y-64734984D01*
X113985913Y-64647211D01*
X113685001Y-64617574D01*
X113384088Y-64647211D01*
X113094740Y-64734984D01*
X112828074Y-64877520D01*
X112594340Y-65069340D01*
X112415001Y-65287866D01*
X112235662Y-65069340D01*
X112001927Y-64877520D01*
X111735261Y-64734984D01*
X111445913Y-64647211D01*
X111145001Y-64617574D01*
X110844088Y-64647211D01*
X110554740Y-64734984D01*
X110288074Y-64877520D01*
X110054340Y-65069340D01*
X109875001Y-65287866D01*
X109695662Y-65069340D01*
X109461927Y-64877520D01*
X109195261Y-64734984D01*
X108905913Y-64647211D01*
X108605001Y-64617574D01*
X108304088Y-64647211D01*
X108014740Y-64734984D01*
X107748074Y-64877520D01*
X107514340Y-65069340D01*
X107335001Y-65287866D01*
X107155662Y-65069340D01*
X106921927Y-64877520D01*
X106655261Y-64734984D01*
X106365913Y-64647211D01*
X106065001Y-64617574D01*
X105764088Y-64647211D01*
X105474740Y-64734984D01*
X105208074Y-64877520D01*
X104974340Y-65069340D01*
X104795001Y-65287866D01*
X104615662Y-65069340D01*
X104381927Y-64877520D01*
X104115261Y-64734984D01*
X103825913Y-64647211D01*
X103525001Y-64617574D01*
X103224088Y-64647211D01*
X102934740Y-64734984D01*
X102668074Y-64877520D01*
X102434340Y-65069340D01*
X102255001Y-65287866D01*
X102075662Y-65069340D01*
X101841927Y-64877520D01*
X101575261Y-64734984D01*
X101285913Y-64647211D01*
X100985001Y-64617574D01*
X100684088Y-64647211D01*
X100394740Y-64734984D01*
X100128074Y-64877520D01*
X99894340Y-65069340D01*
X99715001Y-65287866D01*
X99535662Y-65069340D01*
X99301927Y-64877520D01*
X99035261Y-64734984D01*
X98745913Y-64647211D01*
X98445001Y-64617574D01*
X98144088Y-64647211D01*
X97854740Y-64734984D01*
X97588074Y-64877520D01*
X97354340Y-65069340D01*
X97175001Y-65287866D01*
X96995662Y-65069340D01*
X96761927Y-64877520D01*
X96495261Y-64734984D01*
X96205913Y-64647211D01*
X95905001Y-64617574D01*
X95604088Y-64647211D01*
X95314740Y-64734984D01*
X95048074Y-64877520D01*
X94814340Y-65069340D01*
X94635001Y-65287866D01*
X94455662Y-65069340D01*
X94221927Y-64877520D01*
X93955261Y-64734984D01*
X93665913Y-64647211D01*
X93365001Y-64617574D01*
X93064088Y-64647211D01*
X92774740Y-64734984D01*
X92508074Y-64877520D01*
X92274340Y-65069340D01*
X92095001Y-65287866D01*
X91915662Y-65069340D01*
X91681927Y-64877520D01*
X91415261Y-64734984D01*
X91125913Y-64647211D01*
X90825001Y-64617574D01*
X90524088Y-64647211D01*
X90234740Y-64734984D01*
X89968074Y-64877520D01*
X89734340Y-65069340D01*
X89555001Y-65287866D01*
X89375662Y-65069340D01*
X89141927Y-64877520D01*
X88875261Y-64734984D01*
X88585913Y-64647211D01*
X88285001Y-64617574D01*
X87984088Y-64647211D01*
X87694740Y-64734984D01*
X87428074Y-64877520D01*
X87194340Y-65069340D01*
X87010220Y-65293693D01*
X86950749Y-65201605D01*
X86740607Y-64984791D01*
X86492205Y-64813139D01*
X86215088Y-64693246D01*
X86109741Y-64668965D01*
X85872001Y-64789623D01*
X85618001Y-64789623D01*
X85380261Y-64668965D01*
X85274914Y-64693246D01*
X84997797Y-64813139D01*
X84749395Y-64984791D01*
X84700419Y-65035322D01*
X84694503Y-65015821D01*
X84635538Y-64905507D01*
X84556186Y-64808816D01*
X84459495Y-64729464D01*
X84349181Y-64670499D01*
X84229483Y-64634189D01*
X84105001Y-64621929D01*
X82305001Y-64621929D01*
X82180519Y-64634189D01*
X82060821Y-64670499D01*
X81950507Y-64729464D01*
X81853816Y-64808816D01*
X81774464Y-64905507D01*
X81715499Y-65015821D01*
X81679189Y-65135519D01*
X81666929Y-65260001D01*
X79405012Y-65260001D01*
X79364264Y-65199018D01*
X79066884Y-64901638D01*
X78717203Y-64667989D01*
X78328657Y-64507048D01*
X77916180Y-64425001D01*
X77495622Y-64425001D01*
X77083145Y-64507048D01*
X76694599Y-64667989D01*
X76344918Y-64901638D01*
X76047538Y-65199018D01*
X75813889Y-65548699D01*
X75652948Y-65937245D01*
X75570901Y-66349722D01*
X74320000Y-66349722D01*
X74320000Y-63532279D01*
X74334722Y-63382131D01*
X74368953Y-63268754D01*
X74424555Y-63164181D01*
X74499407Y-63072404D01*
X74590664Y-62996909D01*
X74694844Y-62940581D01*
X74807976Y-62905560D01*
X74956022Y-62890000D01*
X154907721Y-62890000D01*
X155057869Y-62904722D01*
%TA.AperFunction,Conductor*%
D22*
G36*
X155057869Y-62904722D02*
G01*
X155171246Y-62938953D01*
X155275819Y-62994555D01*
X155367596Y-63069407D01*
X155443091Y-63160664D01*
X155499419Y-63264844D01*
X155534440Y-63377976D01*
X155550001Y-63526031D01*
X155550000Y-121887721D01*
X155535278Y-122037869D01*
X155501047Y-122151246D01*
X155445446Y-122255817D01*
X155370594Y-122347595D01*
X155279335Y-122423091D01*
X155175160Y-122479419D01*
X155062024Y-122514440D01*
X154913979Y-122530000D01*
X74962279Y-122530000D01*
X74812131Y-122515278D01*
X74698754Y-122481047D01*
X74594183Y-122425446D01*
X74502405Y-122350594D01*
X74426909Y-122259335D01*
X74370581Y-122155160D01*
X74335560Y-122042024D01*
X74320000Y-121893979D01*
X74320000Y-119793666D01*
X80839999Y-119793666D01*
X80839999Y-120076336D01*
X80895146Y-120353575D01*
X81003319Y-120614728D01*
X81160362Y-120849760D01*
X81360240Y-121049638D01*
X81595272Y-121206681D01*
X81856425Y-121314854D01*
X82133664Y-121370001D01*
X82416334Y-121370001D01*
X82693573Y-121314854D01*
X82954726Y-121206681D01*
X83189758Y-121049638D01*
X83389636Y-120849760D01*
X83544999Y-120617242D01*
X83700362Y-120849760D01*
X83900240Y-121049638D01*
X84135272Y-121206681D01*
X84396425Y-121314854D01*
X84673664Y-121370001D01*
X84956334Y-121370001D01*
X85233573Y-121314854D01*
X85494726Y-121206681D01*
X85729758Y-121049638D01*
X85929636Y-120849760D01*
X86084999Y-120617242D01*
X86240362Y-120849760D01*
X86440240Y-121049638D01*
X86675272Y-121206681D01*
X86936425Y-121314854D01*
X87213664Y-121370001D01*
X87496334Y-121370001D01*
X87773573Y-121314854D01*
X88034726Y-121206681D01*
X88269758Y-121049638D01*
X88469636Y-120849760D01*
X88624999Y-120617242D01*
X88780362Y-120849760D01*
X88980240Y-121049638D01*
X89215272Y-121206681D01*
X89476425Y-121314854D01*
X89753664Y-121370001D01*
X90036334Y-121370001D01*
X90313573Y-121314854D01*
X90574726Y-121206681D01*
X90809758Y-121049638D01*
X91009636Y-120849760D01*
X91164999Y-120617242D01*
X91320362Y-120849760D01*
X91520240Y-121049638D01*
X91755272Y-121206681D01*
X92016425Y-121314854D01*
X92293664Y-121370001D01*
X92576334Y-121370001D01*
X92853573Y-121314854D01*
X93114726Y-121206681D01*
X93349758Y-121049638D01*
X93549636Y-120849760D01*
X93704999Y-120617242D01*
X93860362Y-120849760D01*
X94060240Y-121049638D01*
X94295272Y-121206681D01*
X94556425Y-121314854D01*
X94833664Y-121370001D01*
X95116334Y-121370001D01*
X95393573Y-121314854D01*
X95654726Y-121206681D01*
X95889758Y-121049638D01*
X96089636Y-120849760D01*
X96244999Y-120617242D01*
X96400362Y-120849760D01*
X96600240Y-121049638D01*
X96835272Y-121206681D01*
X97096425Y-121314854D01*
X97373664Y-121370001D01*
X97656334Y-121370001D01*
X97933573Y-121314854D01*
X98194726Y-121206681D01*
X98429758Y-121049638D01*
X98629636Y-120849760D01*
X98784999Y-120617242D01*
X98940362Y-120849760D01*
X99140240Y-121049638D01*
X99375272Y-121206681D01*
X99636425Y-121314854D01*
X99913664Y-121370001D01*
X100196334Y-121370001D01*
X100473573Y-121314854D01*
X100734726Y-121206681D01*
X100969758Y-121049638D01*
X101169636Y-120849760D01*
X101324999Y-120617242D01*
X101480362Y-120849760D01*
X101680240Y-121049638D01*
X101915272Y-121206681D01*
X102176425Y-121314854D01*
X102453664Y-121370001D01*
X102736334Y-121370001D01*
X103013573Y-121314854D01*
X103274726Y-121206681D01*
X103509758Y-121049638D01*
X103709636Y-120849760D01*
X103864999Y-120617242D01*
X104020362Y-120849760D01*
X104220240Y-121049638D01*
X104455272Y-121206681D01*
X104716425Y-121314854D01*
X104993664Y-121370001D01*
X105276334Y-121370001D01*
X105553573Y-121314854D01*
X105814726Y-121206681D01*
X106049758Y-121049638D01*
X106249636Y-120849760D01*
X106404999Y-120617242D01*
X106560362Y-120849760D01*
X106760240Y-121049638D01*
X106995272Y-121206681D01*
X107256425Y-121314854D01*
X107533664Y-121370001D01*
X107816334Y-121370001D01*
X108093573Y-121314854D01*
X108354726Y-121206681D01*
X108589758Y-121049638D01*
X108789636Y-120849760D01*
X108946679Y-120614728D01*
X108951066Y-120604136D01*
X109062614Y-120790132D01*
X109251585Y-120998520D01*
X109477579Y-121166038D01*
X109731912Y-121286247D01*
X109865960Y-121326905D01*
X110087999Y-121204916D01*
X110087999Y-120062001D01*
X110067999Y-120062001D01*
X110067999Y-119808001D01*
X110087999Y-119808001D01*
X110087999Y-118665086D01*
X110341999Y-118665086D01*
X110341999Y-119808001D01*
X110361999Y-119808001D01*
X110361999Y-120062001D01*
X110341999Y-120062001D01*
X110341999Y-121204916D01*
X110564038Y-121326905D01*
X110698086Y-121286247D01*
X110952419Y-121166038D01*
X111178413Y-120998520D01*
X111367384Y-120790132D01*
X111478932Y-120604136D01*
X111483319Y-120614728D01*
X111640362Y-120849760D01*
X111840240Y-121049638D01*
X112075272Y-121206681D01*
X112336425Y-121314854D01*
X112613664Y-121370001D01*
X112896334Y-121370001D01*
X113173573Y-121314854D01*
X113434726Y-121206681D01*
X113669758Y-121049638D01*
X113869636Y-120849760D01*
X114024999Y-120617242D01*
X114180362Y-120849760D01*
X114380240Y-121049638D01*
X114615272Y-121206681D01*
X114876425Y-121314854D01*
X115153664Y-121370001D01*
X115436334Y-121370001D01*
X115713573Y-121314854D01*
X115974726Y-121206681D01*
X116209758Y-121049638D01*
X116409636Y-120849760D01*
X116564999Y-120617242D01*
X116720362Y-120849760D01*
X116920240Y-121049638D01*
X117155272Y-121206681D01*
X117416425Y-121314854D01*
X117693664Y-121370001D01*
X117976334Y-121370001D01*
X118253573Y-121314854D01*
X118514726Y-121206681D01*
X118749758Y-121049638D01*
X118949636Y-120849760D01*
X119106679Y-120614728D01*
X119158770Y-120488967D01*
X134105000Y-120488967D01*
X134105000Y-120811033D01*
X134167832Y-121126912D01*
X134291082Y-121424463D01*
X134470013Y-121692252D01*
X134697748Y-121919987D01*
X134965537Y-122098918D01*
X135263088Y-122222168D01*
X135578967Y-122285000D01*
X135901033Y-122285000D01*
X136216912Y-122222168D01*
X136514463Y-122098918D01*
X136782252Y-121919987D01*
X137009987Y-121692252D01*
X137188918Y-121424463D01*
X137312168Y-121126912D01*
X137375000Y-120811033D01*
X137375000Y-120488967D01*
X140605000Y-120488967D01*
X140605000Y-120811033D01*
X140667832Y-121126912D01*
X140791082Y-121424463D01*
X140970013Y-121692252D01*
X141197748Y-121919987D01*
X141465537Y-122098918D01*
X141763088Y-122222168D01*
X142078967Y-122285000D01*
X142401033Y-122285000D01*
X142716912Y-122222168D01*
X143014463Y-122098918D01*
X143282252Y-121919987D01*
X143509987Y-121692252D01*
X143688918Y-121424463D01*
X143812168Y-121126912D01*
X143875000Y-120811033D01*
X143875000Y-120488967D01*
X145535000Y-120488967D01*
X145535000Y-120811033D01*
X145597832Y-121126912D01*
X145721082Y-121424463D01*
X145900013Y-121692252D01*
X146127748Y-121919987D01*
X146395537Y-122098918D01*
X146693088Y-122222168D01*
X147008967Y-122285000D01*
X147331033Y-122285000D01*
X147646912Y-122222168D01*
X147944463Y-122098918D01*
X148212252Y-121919987D01*
X148439987Y-121692252D01*
X148618918Y-121424463D01*
X148742168Y-121126912D01*
X148805000Y-120811033D01*
X148805000Y-120488967D01*
X152035000Y-120488967D01*
X152035000Y-120811033D01*
X152097832Y-121126912D01*
X152221082Y-121424463D01*
X152400013Y-121692252D01*
X152627748Y-121919987D01*
X152895537Y-122098918D01*
X153193088Y-122222168D01*
X153508967Y-122285000D01*
X153831033Y-122285000D01*
X154146912Y-122222168D01*
X154444463Y-122098918D01*
X154712252Y-121919987D01*
X154939987Y-121692252D01*
X155118918Y-121424463D01*
X155242168Y-121126912D01*
X155305000Y-120811033D01*
X155305000Y-120488967D01*
X155242168Y-120173088D01*
X155118918Y-119875537D01*
X154939987Y-119607748D01*
X154712252Y-119380013D01*
X154444463Y-119201082D01*
X154146912Y-119077832D01*
X153831033Y-119015000D01*
X153508967Y-119015000D01*
X153193088Y-119077832D01*
X152895537Y-119201082D01*
X152627748Y-119380013D01*
X152400013Y-119607748D01*
X152221082Y-119875537D01*
X152097832Y-120173088D01*
X152035000Y-120488967D01*
X148805000Y-120488967D01*
X148742168Y-120173088D01*
X148618918Y-119875537D01*
X148439987Y-119607748D01*
X148212252Y-119380013D01*
X147944463Y-119201082D01*
X147646912Y-119077832D01*
X147331033Y-119015000D01*
X147008967Y-119015000D01*
X146693088Y-119077832D01*
X146395537Y-119201082D01*
X146127748Y-119380013D01*
X145900013Y-119607748D01*
X145721082Y-119875537D01*
X145597832Y-120173088D01*
X145535000Y-120488967D01*
X143875000Y-120488967D01*
X143812168Y-120173088D01*
X143688918Y-119875537D01*
X143509987Y-119607748D01*
X143282252Y-119380013D01*
X143014463Y-119201082D01*
X142716912Y-119077832D01*
X142401033Y-119015000D01*
X142078967Y-119015000D01*
X141763088Y-119077832D01*
X141465537Y-119201082D01*
X141197748Y-119380013D01*
X140970013Y-119607748D01*
X140791082Y-119875537D01*
X140667832Y-120173088D01*
X140605000Y-120488967D01*
X137375000Y-120488967D01*
X137312168Y-120173088D01*
X137188918Y-119875537D01*
X137009987Y-119607748D01*
X136782252Y-119380013D01*
X136514463Y-119201082D01*
X136216912Y-119077832D01*
X135901033Y-119015000D01*
X135578967Y-119015000D01*
X135263088Y-119077832D01*
X134965537Y-119201082D01*
X134697748Y-119380013D01*
X134470013Y-119607748D01*
X134291082Y-119875537D01*
X134167832Y-120173088D01*
X134105000Y-120488967D01*
X119158770Y-120488967D01*
X119214852Y-120353575D01*
X119269999Y-120076336D01*
X119269999Y-119793666D01*
X119214852Y-119516427D01*
X119106679Y-119255274D01*
X118949636Y-119020242D01*
X118749758Y-118820364D01*
X118514726Y-118663321D01*
X118253573Y-118555148D01*
X117976334Y-118500001D01*
X117693664Y-118500001D01*
X117416425Y-118555148D01*
X117155272Y-118663321D01*
X116920240Y-118820364D01*
X116720362Y-119020242D01*
X116564999Y-119252760D01*
X116409636Y-119020242D01*
X116209758Y-118820364D01*
X115974726Y-118663321D01*
X115713573Y-118555148D01*
X115436334Y-118500001D01*
X115153664Y-118500001D01*
X114876425Y-118555148D01*
X114615272Y-118663321D01*
X114380240Y-118820364D01*
X114180362Y-119020242D01*
X114024999Y-119252760D01*
X113869636Y-119020242D01*
X113669758Y-118820364D01*
X113434726Y-118663321D01*
X113173573Y-118555148D01*
X112896334Y-118500001D01*
X112613664Y-118500001D01*
X112336425Y-118555148D01*
X112075272Y-118663321D01*
X111840240Y-118820364D01*
X111640362Y-119020242D01*
X111483319Y-119255274D01*
X111478932Y-119265866D01*
X111367384Y-119079870D01*
X111178413Y-118871482D01*
X110952419Y-118703964D01*
X110698086Y-118583755D01*
X110564038Y-118543097D01*
X110341999Y-118665086D01*
X110087999Y-118665086D01*
X109865960Y-118543097D01*
X109731912Y-118583755D01*
X109477579Y-118703964D01*
X109251585Y-118871482D01*
X109062614Y-119079870D01*
X108951066Y-119265866D01*
X108946679Y-119255274D01*
X108789636Y-119020242D01*
X108589758Y-118820364D01*
X108354726Y-118663321D01*
X108093573Y-118555148D01*
X107816334Y-118500001D01*
X107533664Y-118500001D01*
X107256425Y-118555148D01*
X106995272Y-118663321D01*
X106760240Y-118820364D01*
X106560362Y-119020242D01*
X106404999Y-119252760D01*
X106249636Y-119020242D01*
X106049758Y-118820364D01*
X105814726Y-118663321D01*
X105553573Y-118555148D01*
X105276334Y-118500001D01*
X104993664Y-118500001D01*
X104716425Y-118555148D01*
X104455272Y-118663321D01*
X104220240Y-118820364D01*
X104020362Y-119020242D01*
X103864999Y-119252760D01*
X103709636Y-119020242D01*
X103509758Y-118820364D01*
X103274726Y-118663321D01*
X103013573Y-118555148D01*
X102736334Y-118500001D01*
X102453664Y-118500001D01*
X102176425Y-118555148D01*
X101915272Y-118663321D01*
X101680240Y-118820364D01*
X101480362Y-119020242D01*
X101324999Y-119252760D01*
X101169636Y-119020242D01*
X100969758Y-118820364D01*
X100734726Y-118663321D01*
X100473573Y-118555148D01*
X100196334Y-118500001D01*
X99913664Y-118500001D01*
X99636425Y-118555148D01*
X99375272Y-118663321D01*
X99140240Y-118820364D01*
X98940362Y-119020242D01*
X98784999Y-119252760D01*
X98629636Y-119020242D01*
X98429758Y-118820364D01*
X98194726Y-118663321D01*
X97933573Y-118555148D01*
X97656334Y-118500001D01*
X97373664Y-118500001D01*
X97096425Y-118555148D01*
X96835272Y-118663321D01*
X96600240Y-118820364D01*
X96400362Y-119020242D01*
X96244999Y-119252760D01*
X96089636Y-119020242D01*
X95889758Y-118820364D01*
X95654726Y-118663321D01*
X95393573Y-118555148D01*
X95116334Y-118500001D01*
X94833664Y-118500001D01*
X94556425Y-118555148D01*
X94295272Y-118663321D01*
X94060240Y-118820364D01*
X93860362Y-119020242D01*
X93704999Y-119252760D01*
X93549636Y-119020242D01*
X93349758Y-118820364D01*
X93114726Y-118663321D01*
X92853573Y-118555148D01*
X92576334Y-118500001D01*
X92293664Y-118500001D01*
X92016425Y-118555148D01*
X91755272Y-118663321D01*
X91520240Y-118820364D01*
X91320362Y-119020242D01*
X91164999Y-119252760D01*
X91009636Y-119020242D01*
X90809758Y-118820364D01*
X90574726Y-118663321D01*
X90313573Y-118555148D01*
X90036334Y-118500001D01*
X89753664Y-118500001D01*
X89476425Y-118555148D01*
X89215272Y-118663321D01*
X88980240Y-118820364D01*
X88780362Y-119020242D01*
X88624999Y-119252760D01*
X88469636Y-119020242D01*
X88269758Y-118820364D01*
X88034726Y-118663321D01*
X87773573Y-118555148D01*
X87496334Y-118500001D01*
X87213664Y-118500001D01*
X86936425Y-118555148D01*
X86675272Y-118663321D01*
X86440240Y-118820364D01*
X86240362Y-119020242D01*
X86084999Y-119252760D01*
X85929636Y-119020242D01*
X85729758Y-118820364D01*
X85494726Y-118663321D01*
X85233573Y-118555148D01*
X84956334Y-118500001D01*
X84673664Y-118500001D01*
X84396425Y-118555148D01*
X84135272Y-118663321D01*
X83900240Y-118820364D01*
X83700362Y-119020242D01*
X83544999Y-119252760D01*
X83389636Y-119020242D01*
X83189758Y-118820364D01*
X82954726Y-118663321D01*
X82693573Y-118555148D01*
X82416334Y-118500001D01*
X82133664Y-118500001D01*
X81856425Y-118555148D01*
X81595272Y-118663321D01*
X81360240Y-118820364D01*
X81160362Y-119020242D01*
X81003319Y-119255274D01*
X80895146Y-119516427D01*
X80839999Y-119793666D01*
X74320000Y-119793666D01*
X74320000Y-104553666D01*
X80839999Y-104553666D01*
X80839999Y-104836336D01*
X80895146Y-105113575D01*
X81003319Y-105374728D01*
X81160362Y-105609760D01*
X81360240Y-105809638D01*
X81595272Y-105966681D01*
X81856425Y-106074854D01*
X82133664Y-106130001D01*
X82416334Y-106130001D01*
X82693573Y-106074854D01*
X82954726Y-105966681D01*
X83189758Y-105809638D01*
X83389636Y-105609760D01*
X83544999Y-105377242D01*
X83700362Y-105609760D01*
X83900240Y-105809638D01*
X84135272Y-105966681D01*
X84396425Y-106074854D01*
X84673664Y-106130001D01*
X84956334Y-106130001D01*
X85233573Y-106074854D01*
X85494726Y-105966681D01*
X85729758Y-105809638D01*
X85929636Y-105609760D01*
X86084999Y-105377242D01*
X86240362Y-105609760D01*
X86440240Y-105809638D01*
X86675272Y-105966681D01*
X86936425Y-106074854D01*
X87213664Y-106130001D01*
X87496334Y-106130001D01*
X87773573Y-106074854D01*
X88034726Y-105966681D01*
X88269758Y-105809638D01*
X88469636Y-105609760D01*
X88624999Y-105377242D01*
X88780362Y-105609760D01*
X88980240Y-105809638D01*
X89215272Y-105966681D01*
X89476425Y-106074854D01*
X89753664Y-106130001D01*
X90036334Y-106130001D01*
X90313573Y-106074854D01*
X90574726Y-105966681D01*
X90809758Y-105809638D01*
X91009636Y-105609760D01*
X91164999Y-105377242D01*
X91320362Y-105609760D01*
X91520240Y-105809638D01*
X91549999Y-105829523D01*
X91550000Y-107631520D01*
X91545718Y-107674999D01*
X91562804Y-107848489D01*
X91613411Y-108015312D01*
X91695589Y-108169058D01*
X91778467Y-108270045D01*
X91778470Y-108270048D01*
X91806183Y-108303816D01*
X91839951Y-108331529D01*
X100253470Y-116745049D01*
X100281183Y-116778817D01*
X100314951Y-116806530D01*
X100314953Y-116806532D01*
X100386452Y-116865210D01*
X100415941Y-116889411D01*
X100569687Y-116971589D01*
X100736510Y-117022195D01*
X100866523Y-117035000D01*
X100866533Y-117035000D01*
X100909999Y-117039281D01*
X100953465Y-117035000D01*
X134364941Y-117035000D01*
X134470013Y-117192252D01*
X134697748Y-117419987D01*
X134965537Y-117598918D01*
X135263088Y-117722168D01*
X135578967Y-117785000D01*
X135901033Y-117785000D01*
X136216912Y-117722168D01*
X136514463Y-117598918D01*
X136782252Y-117419987D01*
X137009987Y-117192252D01*
X137188918Y-116924463D01*
X137312168Y-116626912D01*
X137375000Y-116311033D01*
X137375000Y-115988967D01*
X140605000Y-115988967D01*
X140605000Y-116311033D01*
X140667832Y-116626912D01*
X140791082Y-116924463D01*
X140970013Y-117192252D01*
X141197748Y-117419987D01*
X141465537Y-117598918D01*
X141763088Y-117722168D01*
X142078967Y-117785000D01*
X142401033Y-117785000D01*
X142716912Y-117722168D01*
X143014463Y-117598918D01*
X143282252Y-117419987D01*
X143509987Y-117192252D01*
X143688918Y-116924463D01*
X143812168Y-116626912D01*
X143875000Y-116311033D01*
X143875000Y-115988967D01*
X143812168Y-115673088D01*
X143688918Y-115375537D01*
X143509987Y-115107748D01*
X143282252Y-114880013D01*
X143014463Y-114701082D01*
X142716912Y-114577832D01*
X142401033Y-114515000D01*
X142078967Y-114515000D01*
X141763088Y-114577832D01*
X141465537Y-114701082D01*
X141197748Y-114880013D01*
X140970013Y-115107748D01*
X140791082Y-115375537D01*
X140667832Y-115673088D01*
X140605000Y-115988967D01*
X137375000Y-115988967D01*
X137312168Y-115673088D01*
X137188918Y-115375537D01*
X137009987Y-115107748D01*
X136782252Y-114880013D01*
X136514463Y-114701082D01*
X136216912Y-114577832D01*
X135901033Y-114515000D01*
X135578967Y-114515000D01*
X135263088Y-114577832D01*
X134965537Y-114701082D01*
X134697748Y-114880013D01*
X134470013Y-115107748D01*
X134364941Y-115265000D01*
X101276579Y-115265000D01*
X93319999Y-107308421D01*
X93319999Y-105829522D01*
X93349758Y-105809638D01*
X93549636Y-105609760D01*
X93704999Y-105377242D01*
X93860362Y-105609760D01*
X94060240Y-105809638D01*
X94295272Y-105966681D01*
X94556425Y-106074854D01*
X94833664Y-106130001D01*
X95116334Y-106130001D01*
X95393573Y-106074854D01*
X95654726Y-105966681D01*
X95889758Y-105809638D01*
X96089636Y-105609760D01*
X96244999Y-105377242D01*
X96400362Y-105609760D01*
X96600240Y-105809638D01*
X96630000Y-105829523D01*
X96629999Y-107631530D01*
X96625718Y-107674999D01*
X96629999Y-107718468D01*
X96629999Y-107718475D01*
X96642804Y-107848488D01*
X96693410Y-108015311D01*
X96775588Y-108169057D01*
X96886182Y-108303816D01*
X96919955Y-108331533D01*
X98403470Y-109815049D01*
X98431183Y-109848817D01*
X98464951Y-109876530D01*
X98464953Y-109876532D01*
X98536452Y-109935210D01*
X98565941Y-109959411D01*
X98719687Y-110041589D01*
X98886510Y-110092195D01*
X99016523Y-110105000D01*
X99016533Y-110105000D01*
X99059999Y-110109281D01*
X99103465Y-110105000D01*
X127873424Y-110105000D01*
X129310352Y-111541928D01*
X128690000Y-111541928D01*
X128565518Y-111554188D01*
X128445820Y-111590498D01*
X128335506Y-111649463D01*
X128238815Y-111728815D01*
X128159463Y-111825506D01*
X128100498Y-111935820D01*
X128078487Y-112008380D01*
X127946632Y-111876525D01*
X127703411Y-111714010D01*
X127433158Y-111602068D01*
X127146260Y-111545000D01*
X126853740Y-111545000D01*
X126566842Y-111602068D01*
X126296589Y-111714010D01*
X126053368Y-111876525D01*
X125846525Y-112083368D01*
X125684010Y-112326589D01*
X125572068Y-112596842D01*
X125515000Y-112883740D01*
X125515000Y-113176260D01*
X125572068Y-113463158D01*
X125684010Y-113733411D01*
X125846525Y-113976632D01*
X126053368Y-114183475D01*
X126296589Y-114345990D01*
X126566842Y-114457932D01*
X126853740Y-114515000D01*
X127146260Y-114515000D01*
X127433158Y-114457932D01*
X127703411Y-114345990D01*
X127946632Y-114183475D01*
X128078487Y-114051620D01*
X128100498Y-114124180D01*
X128159463Y-114234494D01*
X128238815Y-114331185D01*
X128335506Y-114410537D01*
X128445820Y-114469502D01*
X128565518Y-114505812D01*
X128690000Y-114518072D01*
X130390000Y-114518072D01*
X130514482Y-114505812D01*
X130634180Y-114469502D01*
X130744494Y-114410537D01*
X130841185Y-114331185D01*
X130920537Y-114234494D01*
X130979502Y-114124180D01*
X131015812Y-114004482D01*
X131028072Y-113880000D01*
X131028072Y-113259649D01*
X131393472Y-113625049D01*
X131421185Y-113658817D01*
X131454953Y-113686530D01*
X131454955Y-113686532D01*
X131555943Y-113769411D01*
X131709688Y-113851589D01*
X131803346Y-113880000D01*
X131876512Y-113902195D01*
X132006525Y-113915000D01*
X132006533Y-113915000D01*
X132050002Y-113919281D01*
X132093471Y-113915000D01*
X143683422Y-113915000D01*
X145571896Y-115803475D01*
X145535000Y-115988967D01*
X145535000Y-116311033D01*
X145597832Y-116626912D01*
X145721082Y-116924463D01*
X145900013Y-117192252D01*
X146127748Y-117419987D01*
X146395537Y-117598918D01*
X146693088Y-117722168D01*
X147008967Y-117785000D01*
X147331033Y-117785000D01*
X147646912Y-117722168D01*
X147944463Y-117598918D01*
X148212252Y-117419987D01*
X148439987Y-117192252D01*
X148618918Y-116924463D01*
X148742168Y-116626912D01*
X148805000Y-116311033D01*
X148805000Y-115988967D01*
X152035000Y-115988967D01*
X152035000Y-116311033D01*
X152097832Y-116626912D01*
X152221082Y-116924463D01*
X152400013Y-117192252D01*
X152627748Y-117419987D01*
X152895537Y-117598918D01*
X153193088Y-117722168D01*
X153508967Y-117785000D01*
X153831033Y-117785000D01*
X154146912Y-117722168D01*
X154444463Y-117598918D01*
X154712252Y-117419987D01*
X154939987Y-117192252D01*
X155118918Y-116924463D01*
X155242168Y-116626912D01*
X155305000Y-116311033D01*
X155305000Y-115988967D01*
X155242168Y-115673088D01*
X155118918Y-115375537D01*
X154939987Y-115107748D01*
X154712252Y-114880013D01*
X154444463Y-114701082D01*
X154146912Y-114577832D01*
X153831033Y-114515000D01*
X153508967Y-114515000D01*
X153193088Y-114577832D01*
X152895537Y-114701082D01*
X152627748Y-114880013D01*
X152400013Y-115107748D01*
X152221082Y-115375537D01*
X152097832Y-115673088D01*
X152035000Y-115988967D01*
X148805000Y-115988967D01*
X148742168Y-115673088D01*
X148618918Y-115375537D01*
X148439987Y-115107748D01*
X148212252Y-114880013D01*
X147944463Y-114701082D01*
X147646912Y-114577832D01*
X147331033Y-114515000D01*
X147008967Y-114515000D01*
X146823475Y-114551896D01*
X144706534Y-112434956D01*
X144678817Y-112401183D01*
X144544059Y-112290589D01*
X144390313Y-112208411D01*
X144223490Y-112157805D01*
X144093477Y-112145000D01*
X144093469Y-112145000D01*
X144050000Y-112140719D01*
X144006531Y-112145000D01*
X132416581Y-112145000D01*
X130600548Y-110328967D01*
X134105000Y-110328967D01*
X134105000Y-110651033D01*
X134167832Y-110966912D01*
X134291082Y-111264463D01*
X134470013Y-111532252D01*
X134697748Y-111759987D01*
X134965537Y-111938918D01*
X135263088Y-112062168D01*
X135578967Y-112125000D01*
X135901033Y-112125000D01*
X136216912Y-112062168D01*
X136514463Y-111938918D01*
X136782252Y-111759987D01*
X137009987Y-111532252D01*
X137188918Y-111264463D01*
X137312168Y-110966912D01*
X137375000Y-110651033D01*
X137375000Y-110328967D01*
X140605000Y-110328967D01*
X140605000Y-110651033D01*
X140667832Y-110966912D01*
X140791082Y-111264463D01*
X140970013Y-111532252D01*
X141197748Y-111759987D01*
X141465537Y-111938918D01*
X141763088Y-112062168D01*
X142078967Y-112125000D01*
X142401033Y-112125000D01*
X142716912Y-112062168D01*
X143014463Y-111938918D01*
X143282252Y-111759987D01*
X143509987Y-111532252D01*
X143688918Y-111264463D01*
X143812168Y-110966912D01*
X143875000Y-110651033D01*
X143875000Y-110328967D01*
X145535000Y-110328967D01*
X145535000Y-110651033D01*
X145597832Y-110966912D01*
X145721082Y-111264463D01*
X145900013Y-111532252D01*
X146127748Y-111759987D01*
X146395537Y-111938918D01*
X146693088Y-112062168D01*
X147008967Y-112125000D01*
X147331033Y-112125000D01*
X147646912Y-112062168D01*
X147944463Y-111938918D01*
X148212252Y-111759987D01*
X148439987Y-111532252D01*
X148618918Y-111264463D01*
X148742168Y-110966912D01*
X148805000Y-110651033D01*
X148805000Y-110328967D01*
X152035000Y-110328967D01*
X152035000Y-110651033D01*
X152097832Y-110966912D01*
X152221082Y-111264463D01*
X152400013Y-111532252D01*
X152627748Y-111759987D01*
X152895537Y-111938918D01*
X153193088Y-112062168D01*
X153508967Y-112125000D01*
X153831033Y-112125000D01*
X154146912Y-112062168D01*
X154444463Y-111938918D01*
X154712252Y-111759987D01*
X154939987Y-111532252D01*
X155118918Y-111264463D01*
X155242168Y-110966912D01*
X155305000Y-110651033D01*
X155305000Y-110328967D01*
X155242168Y-110013088D01*
X155118918Y-109715537D01*
X154939987Y-109447748D01*
X154712252Y-109220013D01*
X154444463Y-109041082D01*
X154146912Y-108917832D01*
X153831033Y-108855000D01*
X153508967Y-108855000D01*
X153193088Y-108917832D01*
X152895537Y-109041082D01*
X152627748Y-109220013D01*
X152400013Y-109447748D01*
X152221082Y-109715537D01*
X152097832Y-110013088D01*
X152035000Y-110328967D01*
X148805000Y-110328967D01*
X148742168Y-110013088D01*
X148618918Y-109715537D01*
X148439987Y-109447748D01*
X148212252Y-109220013D01*
X147944463Y-109041082D01*
X147646912Y-108917832D01*
X147331033Y-108855000D01*
X147008967Y-108855000D01*
X146693088Y-108917832D01*
X146395537Y-109041082D01*
X146127748Y-109220013D01*
X145900013Y-109447748D01*
X145721082Y-109715537D01*
X145597832Y-110013088D01*
X145535000Y-110328967D01*
X143875000Y-110328967D01*
X143812168Y-110013088D01*
X143688918Y-109715537D01*
X143509987Y-109447748D01*
X143282252Y-109220013D01*
X143014463Y-109041082D01*
X142716912Y-108917832D01*
X142401033Y-108855000D01*
X142078967Y-108855000D01*
X141763088Y-108917832D01*
X141465537Y-109041082D01*
X141197748Y-109220013D01*
X140970013Y-109447748D01*
X140791082Y-109715537D01*
X140667832Y-110013088D01*
X140605000Y-110328967D01*
X137375000Y-110328967D01*
X137312168Y-110013088D01*
X137188918Y-109715537D01*
X137009987Y-109447748D01*
X136782252Y-109220013D01*
X136514463Y-109041082D01*
X136216912Y-108917832D01*
X135901033Y-108855000D01*
X135578967Y-108855000D01*
X135263088Y-108917832D01*
X134965537Y-109041082D01*
X134697748Y-109220013D01*
X134470013Y-109447748D01*
X134291082Y-109715537D01*
X134167832Y-110013088D01*
X134105000Y-110328967D01*
X130600548Y-110328967D01*
X128896536Y-108624956D01*
X128868819Y-108591183D01*
X128734061Y-108480589D01*
X128580315Y-108398411D01*
X128413492Y-108347805D01*
X128283479Y-108335000D01*
X128283471Y-108335000D01*
X128240002Y-108330719D01*
X128196533Y-108335000D01*
X99426579Y-108335000D01*
X98399999Y-107308421D01*
X98399999Y-106345560D01*
X124974045Y-106345560D01*
X125035932Y-106581368D01*
X125277790Y-106694266D01*
X125537027Y-106757811D01*
X125803680Y-106769561D01*
X126067501Y-106729063D01*
X126318353Y-106637875D01*
X126424068Y-106581368D01*
X126485955Y-106345560D01*
X125730000Y-105589605D01*
X124974045Y-106345560D01*
X98399999Y-106345560D01*
X98399999Y-105829522D01*
X98429758Y-105809638D01*
X98629636Y-105609760D01*
X98784999Y-105377242D01*
X98940362Y-105609760D01*
X99140240Y-105809638D01*
X99375272Y-105966681D01*
X99636425Y-106074854D01*
X99913664Y-106130001D01*
X100196334Y-106130001D01*
X100473573Y-106074854D01*
X100734726Y-105966681D01*
X100969758Y-105809638D01*
X101169636Y-105609760D01*
X101324999Y-105377242D01*
X101480362Y-105609760D01*
X101680240Y-105809638D01*
X101915272Y-105966681D01*
X102176425Y-106074854D01*
X102453664Y-106130001D01*
X102736334Y-106130001D01*
X103013573Y-106074854D01*
X103274726Y-105966681D01*
X103509758Y-105809638D01*
X103709636Y-105609760D01*
X103864999Y-105377242D01*
X104020362Y-105609760D01*
X104220240Y-105809638D01*
X104455272Y-105966681D01*
X104716425Y-106074854D01*
X104993664Y-106130001D01*
X105276334Y-106130001D01*
X105553573Y-106074854D01*
X105814726Y-105966681D01*
X106049758Y-105809638D01*
X106249636Y-105609760D01*
X106404999Y-105377242D01*
X106560362Y-105609760D01*
X106760240Y-105809638D01*
X106995272Y-105966681D01*
X107256425Y-106074854D01*
X107533664Y-106130001D01*
X107816334Y-106130001D01*
X108093573Y-106074854D01*
X108354726Y-105966681D01*
X108589758Y-105809638D01*
X108789636Y-105609760D01*
X108944999Y-105377242D01*
X109100362Y-105609760D01*
X109300240Y-105809638D01*
X109535272Y-105966681D01*
X109796425Y-106074854D01*
X110073664Y-106130001D01*
X110356334Y-106130001D01*
X110633573Y-106074854D01*
X110894726Y-105966681D01*
X111129758Y-105809638D01*
X111329636Y-105609760D01*
X111484999Y-105377242D01*
X111640362Y-105609760D01*
X111840240Y-105809638D01*
X112075272Y-105966681D01*
X112336425Y-106074854D01*
X112613664Y-106130001D01*
X112896334Y-106130001D01*
X113173573Y-106074854D01*
X113434726Y-105966681D01*
X113669758Y-105809638D01*
X113869636Y-105609760D01*
X114024999Y-105377242D01*
X114180362Y-105609760D01*
X114380240Y-105809638D01*
X114615272Y-105966681D01*
X114876425Y-106074854D01*
X115153664Y-106130001D01*
X115436334Y-106130001D01*
X115713573Y-106074854D01*
X115974726Y-105966681D01*
X116209758Y-105809638D01*
X116408356Y-105611040D01*
X116409187Y-105619483D01*
X116445497Y-105739181D01*
X116504462Y-105849495D01*
X116583814Y-105946186D01*
X116680505Y-106025538D01*
X116790819Y-106084503D01*
X116910517Y-106120813D01*
X117034999Y-106133073D01*
X118634999Y-106133073D01*
X118759481Y-106120813D01*
X118879179Y-106084503D01*
X118989493Y-106025538D01*
X119086184Y-105946186D01*
X119165536Y-105849495D01*
X119224501Y-105739181D01*
X119260811Y-105619483D01*
X119273071Y-105495001D01*
X119273071Y-105483680D01*
X124370439Y-105483680D01*
X124410937Y-105747501D01*
X124502125Y-105998353D01*
X124558632Y-106104068D01*
X124794440Y-106165955D01*
X125550395Y-105410000D01*
X125909605Y-105410000D01*
X126665560Y-106165955D01*
X126901368Y-106104068D01*
X127014266Y-105862210D01*
X127077811Y-105602973D01*
X127089561Y-105336320D01*
X127049063Y-105072499D01*
X126957875Y-104821647D01*
X126901368Y-104715932D01*
X126665560Y-104654045D01*
X125909605Y-105410000D01*
X125550395Y-105410000D01*
X124794440Y-104654045D01*
X124558632Y-104715932D01*
X124445734Y-104957790D01*
X124382189Y-105217027D01*
X124370439Y-105483680D01*
X119273071Y-105483680D01*
X119273071Y-103895001D01*
X119260811Y-103770519D01*
X119224501Y-103650821D01*
X119165536Y-103540507D01*
X119086184Y-103443816D01*
X118989493Y-103364464D01*
X118879179Y-103305499D01*
X118759481Y-103269189D01*
X118634999Y-103256929D01*
X117034999Y-103256929D01*
X116910517Y-103269189D01*
X116790819Y-103305499D01*
X116680505Y-103364464D01*
X116583814Y-103443816D01*
X116504462Y-103540507D01*
X116445497Y-103650821D01*
X116409187Y-103770519D01*
X116408356Y-103778962D01*
X116209758Y-103580364D01*
X115974726Y-103423321D01*
X115713573Y-103315148D01*
X115436334Y-103260001D01*
X115153664Y-103260001D01*
X114876425Y-103315148D01*
X114615272Y-103423321D01*
X114380240Y-103580364D01*
X114180362Y-103780242D01*
X114024999Y-104012760D01*
X113869636Y-103780242D01*
X113669758Y-103580364D01*
X113434726Y-103423321D01*
X113173573Y-103315148D01*
X112896334Y-103260001D01*
X112613664Y-103260001D01*
X112336425Y-103315148D01*
X112075272Y-103423321D01*
X111840240Y-103580364D01*
X111640362Y-103780242D01*
X111484999Y-104012760D01*
X111329636Y-103780242D01*
X111129758Y-103580364D01*
X110894726Y-103423321D01*
X110633573Y-103315148D01*
X110356334Y-103260001D01*
X110073664Y-103260001D01*
X109796425Y-103315148D01*
X109535272Y-103423321D01*
X109300240Y-103580364D01*
X109100362Y-103780242D01*
X108944999Y-104012760D01*
X108789636Y-103780242D01*
X108589758Y-103580364D01*
X108354726Y-103423321D01*
X108093573Y-103315148D01*
X107816334Y-103260001D01*
X107533664Y-103260001D01*
X107256425Y-103315148D01*
X106995272Y-103423321D01*
X106760240Y-103580364D01*
X106560362Y-103780242D01*
X106404999Y-104012760D01*
X106249636Y-103780242D01*
X106049758Y-103580364D01*
X105814726Y-103423321D01*
X105553573Y-103315148D01*
X105276334Y-103260001D01*
X104993664Y-103260001D01*
X104716425Y-103315148D01*
X104455272Y-103423321D01*
X104220240Y-103580364D01*
X104020362Y-103780242D01*
X103864999Y-104012760D01*
X103709636Y-103780242D01*
X103509758Y-103580364D01*
X103274726Y-103423321D01*
X103013573Y-103315148D01*
X102736334Y-103260001D01*
X102453664Y-103260001D01*
X102176425Y-103315148D01*
X101915272Y-103423321D01*
X101680240Y-103580364D01*
X101480362Y-103780242D01*
X101324999Y-104012760D01*
X101169636Y-103780242D01*
X100969758Y-103580364D01*
X100734726Y-103423321D01*
X100473573Y-103315148D01*
X100196334Y-103260001D01*
X99913664Y-103260001D01*
X99636425Y-103315148D01*
X99375272Y-103423321D01*
X99140240Y-103580364D01*
X98940362Y-103780242D01*
X98784999Y-104012760D01*
X98629636Y-103780242D01*
X98429758Y-103580364D01*
X98194726Y-103423321D01*
X97933573Y-103315148D01*
X97656334Y-103260001D01*
X97373664Y-103260001D01*
X97096425Y-103315148D01*
X96835272Y-103423321D01*
X96600240Y-103580364D01*
X96400362Y-103780242D01*
X96244999Y-104012760D01*
X96089636Y-103780242D01*
X95889758Y-103580364D01*
X95654726Y-103423321D01*
X95393573Y-103315148D01*
X95116334Y-103260001D01*
X94833664Y-103260001D01*
X94556425Y-103315148D01*
X94295272Y-103423321D01*
X94060240Y-103580364D01*
X93860362Y-103780242D01*
X93704999Y-104012760D01*
X93549636Y-103780242D01*
X93349758Y-103580364D01*
X93114726Y-103423321D01*
X92853573Y-103315148D01*
X92576334Y-103260001D01*
X92293664Y-103260001D01*
X92016425Y-103315148D01*
X91755272Y-103423321D01*
X91520240Y-103580364D01*
X91320362Y-103780242D01*
X91164999Y-104012760D01*
X91009636Y-103780242D01*
X90809758Y-103580364D01*
X90574726Y-103423321D01*
X90313573Y-103315148D01*
X90036334Y-103260001D01*
X89753664Y-103260001D01*
X89476425Y-103315148D01*
X89215272Y-103423321D01*
X88980240Y-103580364D01*
X88780362Y-103780242D01*
X88624999Y-104012760D01*
X88469636Y-103780242D01*
X88269758Y-103580364D01*
X88034726Y-103423321D01*
X87773573Y-103315148D01*
X87496334Y-103260001D01*
X87213664Y-103260001D01*
X86936425Y-103315148D01*
X86675272Y-103423321D01*
X86440240Y-103580364D01*
X86240362Y-103780242D01*
X86084999Y-104012760D01*
X85929636Y-103780242D01*
X85729758Y-103580364D01*
X85494726Y-103423321D01*
X85233573Y-103315148D01*
X84956334Y-103260001D01*
X84673664Y-103260001D01*
X84396425Y-103315148D01*
X84135272Y-103423321D01*
X83900240Y-103580364D01*
X83700362Y-103780242D01*
X83544999Y-104012760D01*
X83389636Y-103780242D01*
X83189758Y-103580364D01*
X82954726Y-103423321D01*
X82693573Y-103315148D01*
X82416334Y-103260001D01*
X82133664Y-103260001D01*
X81856425Y-103315148D01*
X81595272Y-103423321D01*
X81360240Y-103580364D01*
X81160362Y-103780242D01*
X81003319Y-104015274D01*
X80895146Y-104276427D01*
X80839999Y-104553666D01*
X74320000Y-104553666D01*
X74320000Y-102020000D01*
X124241928Y-102020000D01*
X124245000Y-102584250D01*
X124403750Y-102743000D01*
X125603000Y-102743000D01*
X125603000Y-101543750D01*
X125444250Y-101385000D01*
X124880000Y-101381928D01*
X124755518Y-101394188D01*
X124635820Y-101430498D01*
X124525506Y-101489463D01*
X124428815Y-101568815D01*
X124349463Y-101665506D01*
X124290498Y-101775820D01*
X124254188Y-101895518D01*
X124241928Y-102020000D01*
X74320000Y-102020000D01*
X74320000Y-97350422D01*
X75570901Y-97350422D01*
X75570901Y-97770980D01*
X75652948Y-98183457D01*
X75813889Y-98572003D01*
X76047538Y-98921684D01*
X76344918Y-99219064D01*
X76694599Y-99452713D01*
X77083145Y-99613654D01*
X77495622Y-99695701D01*
X77916180Y-99695701D01*
X78328657Y-99613654D01*
X78717203Y-99452713D01*
X79066884Y-99219064D01*
X79364264Y-98921684D01*
X79597913Y-98572003D01*
X79758854Y-98183457D01*
X79840901Y-97770980D01*
X79840901Y-97350422D01*
X79758854Y-96937945D01*
X79597913Y-96549399D01*
X79364264Y-96199718D01*
X79066884Y-95902338D01*
X78717203Y-95668689D01*
X78328657Y-95507748D01*
X77916180Y-95425701D01*
X77495622Y-95425701D01*
X77083145Y-95507748D01*
X76694599Y-95668689D01*
X76344918Y-95902338D01*
X76047538Y-96199718D01*
X75813889Y-96549399D01*
X75652948Y-96937945D01*
X75570901Y-97350422D01*
X74320000Y-97350422D01*
X74320000Y-66349722D01*
X75570901Y-66349722D01*
X75570901Y-66770280D01*
X75652948Y-67182757D01*
X75813889Y-67571303D01*
X76047538Y-67920984D01*
X76344918Y-68218364D01*
X76694599Y-68452013D01*
X77083145Y-68612954D01*
X77495622Y-68695001D01*
X77916180Y-68695001D01*
X78328657Y-68612954D01*
X78717203Y-68452013D01*
X79066884Y-68218364D01*
X79364264Y-67920984D01*
X79597913Y-67571303D01*
X79758854Y-67182757D01*
X79840901Y-66770280D01*
X79840901Y-66349722D01*
X79758854Y-65937245D01*
X79597913Y-65548699D01*
X79405012Y-65260001D01*
X81666929Y-65260001D01*
X81666929Y-67860001D01*
X81679189Y-67984483D01*
X81715499Y-68104181D01*
X81774464Y-68214495D01*
X81853816Y-68311186D01*
X81950507Y-68390538D01*
X82060821Y-68449503D01*
X82180519Y-68485813D01*
X82305001Y-68498073D01*
X84105001Y-68498073D01*
X84229483Y-68485813D01*
X84349181Y-68449503D01*
X84459495Y-68390538D01*
X84556186Y-68311186D01*
X84635538Y-68214495D01*
X84694503Y-68104181D01*
X84700419Y-68084680D01*
X84749395Y-68135211D01*
X84997797Y-68306863D01*
X85274914Y-68426756D01*
X85380261Y-68451037D01*
X85618001Y-68330379D01*
X85618001Y-66687001D01*
X85598001Y-66687001D01*
X85598001Y-66433001D01*
X85618001Y-66433001D01*
X85618001Y-64789623D01*
X85872001Y-64789623D01*
X85872001Y-66433001D01*
X85892001Y-66433001D01*
X85892001Y-66687001D01*
X85872001Y-66687001D01*
X85872001Y-68330379D01*
X86109741Y-68451037D01*
X86215088Y-68426756D01*
X86492205Y-68306863D01*
X86740607Y-68135211D01*
X86950749Y-67918397D01*
X87010220Y-67826310D01*
X87194340Y-68050662D01*
X87400001Y-68219443D01*
X87400002Y-70461522D01*
X87395720Y-70505001D01*
X87412806Y-70678491D01*
X87463413Y-70845314D01*
X87545591Y-70999060D01*
X87628469Y-71100047D01*
X87628472Y-71100050D01*
X87656185Y-71133818D01*
X87689953Y-71161531D01*
X112373470Y-95845049D01*
X112401183Y-95878817D01*
X112434951Y-95906530D01*
X112434953Y-95906532D01*
X112506452Y-95965210D01*
X112535941Y-95989411D01*
X112689687Y-96071589D01*
X112856510Y-96122195D01*
X112986523Y-96135000D01*
X112986533Y-96135000D01*
X113029999Y-96139281D01*
X113073465Y-96135000D01*
X124093422Y-96135000D01*
X127385000Y-99426579D01*
X127385001Y-101838740D01*
X127217503Y-102006238D01*
X127216818Y-102007264D01*
X127205812Y-101895518D01*
X127169502Y-101775820D01*
X127110537Y-101665506D01*
X127031185Y-101568815D01*
X126934494Y-101489463D01*
X126824180Y-101430498D01*
X126704482Y-101394188D01*
X126580000Y-101381928D01*
X126015750Y-101385000D01*
X125857000Y-101543750D01*
X125857000Y-102743000D01*
X125877000Y-102743000D01*
X125877000Y-102997000D01*
X125857000Y-102997000D01*
X125857000Y-103017000D01*
X125603000Y-103017000D01*
X125603000Y-102997000D01*
X124403750Y-102997000D01*
X124245000Y-103155750D01*
X124241928Y-103720000D01*
X124254188Y-103844482D01*
X124290498Y-103964180D01*
X124349463Y-104074494D01*
X124428815Y-104171185D01*
X124525506Y-104250537D01*
X124635820Y-104309502D01*
X124755518Y-104345812D01*
X124880000Y-104358072D01*
X125004764Y-104357393D01*
X124974045Y-104474440D01*
X125730000Y-105230395D01*
X126485955Y-104474440D01*
X126455236Y-104357393D01*
X126580000Y-104358072D01*
X126704482Y-104345812D01*
X126824180Y-104309502D01*
X126934494Y-104250537D01*
X127031185Y-104171185D01*
X127110537Y-104074494D01*
X127169502Y-103964180D01*
X127205812Y-103844482D01*
X127216818Y-103732736D01*
X127217503Y-103733762D01*
X127406238Y-103922497D01*
X127628167Y-104070785D01*
X127874761Y-104172928D01*
X128136544Y-104225000D01*
X128403456Y-104225000D01*
X128665239Y-104172928D01*
X128911833Y-104070785D01*
X129133762Y-103922497D01*
X129322497Y-103733762D01*
X129323182Y-103732736D01*
X129334188Y-103844482D01*
X129370498Y-103964180D01*
X129429463Y-104074494D01*
X129508815Y-104171185D01*
X129605506Y-104250537D01*
X129715820Y-104309502D01*
X129835518Y-104345812D01*
X129947264Y-104356818D01*
X129946238Y-104357503D01*
X129757503Y-104546238D01*
X129609215Y-104768167D01*
X129507072Y-105014761D01*
X129455000Y-105276544D01*
X129455000Y-105543456D01*
X129507072Y-105805239D01*
X129609215Y-106051833D01*
X129757503Y-106273762D01*
X129946238Y-106462497D01*
X130168167Y-106610785D01*
X130414761Y-106712928D01*
X130676544Y-106765000D01*
X130943456Y-106765000D01*
X131205239Y-106712928D01*
X131451833Y-106610785D01*
X131673762Y-106462497D01*
X131862497Y-106273762D01*
X132010785Y-106051833D01*
X132103099Y-105828967D01*
X134105000Y-105828967D01*
X134105000Y-106151033D01*
X134167832Y-106466912D01*
X134291082Y-106764463D01*
X134470013Y-107032252D01*
X134697748Y-107259987D01*
X134965537Y-107438918D01*
X135263088Y-107562168D01*
X135578967Y-107625000D01*
X135901033Y-107625000D01*
X136216912Y-107562168D01*
X136514463Y-107438918D01*
X136782252Y-107259987D01*
X137009987Y-107032252D01*
X137188918Y-106764463D01*
X137312168Y-106466912D01*
X137375000Y-106151033D01*
X137375000Y-105828967D01*
X140605000Y-105828967D01*
X140605000Y-106151033D01*
X140667832Y-106466912D01*
X140791082Y-106764463D01*
X140970013Y-107032252D01*
X141197748Y-107259987D01*
X141465537Y-107438918D01*
X141763088Y-107562168D01*
X142078967Y-107625000D01*
X142401033Y-107625000D01*
X142716912Y-107562168D01*
X143014463Y-107438918D01*
X143282252Y-107259987D01*
X143509987Y-107032252D01*
X143688918Y-106764463D01*
X143812168Y-106466912D01*
X143875000Y-106151033D01*
X143875000Y-105828967D01*
X145535000Y-105828967D01*
X145535000Y-106151033D01*
X145597832Y-106466912D01*
X145721082Y-106764463D01*
X145900013Y-107032252D01*
X146127748Y-107259987D01*
X146395537Y-107438918D01*
X146693088Y-107562168D01*
X147008967Y-107625000D01*
X147331033Y-107625000D01*
X147646912Y-107562168D01*
X147944463Y-107438918D01*
X148212252Y-107259987D01*
X148439987Y-107032252D01*
X148618918Y-106764463D01*
X148742168Y-106466912D01*
X148805000Y-106151033D01*
X148805000Y-105828967D01*
X152035000Y-105828967D01*
X152035000Y-106151033D01*
X152097832Y-106466912D01*
X152221082Y-106764463D01*
X152400013Y-107032252D01*
X152627748Y-107259987D01*
X152895537Y-107438918D01*
X153193088Y-107562168D01*
X153508967Y-107625000D01*
X153831033Y-107625000D01*
X154146912Y-107562168D01*
X154444463Y-107438918D01*
X154712252Y-107259987D01*
X154939987Y-107032252D01*
X155118918Y-106764463D01*
X155242168Y-106466912D01*
X155305000Y-106151033D01*
X155305000Y-105828967D01*
X155242168Y-105513088D01*
X155118918Y-105215537D01*
X154939987Y-104947748D01*
X154712252Y-104720013D01*
X154444463Y-104541082D01*
X154146912Y-104417832D01*
X153831033Y-104355000D01*
X153508967Y-104355000D01*
X153193088Y-104417832D01*
X152895537Y-104541082D01*
X152627748Y-104720013D01*
X152400013Y-104947748D01*
X152221082Y-105215537D01*
X152097832Y-105513088D01*
X152035000Y-105828967D01*
X148805000Y-105828967D01*
X148742168Y-105513088D01*
X148618918Y-105215537D01*
X148439987Y-104947748D01*
X148212252Y-104720013D01*
X147944463Y-104541082D01*
X147646912Y-104417832D01*
X147331033Y-104355000D01*
X147008967Y-104355000D01*
X146693088Y-104417832D01*
X146395537Y-104541082D01*
X146127748Y-104720013D01*
X145900013Y-104947748D01*
X145721082Y-105215537D01*
X145597832Y-105513088D01*
X145535000Y-105828967D01*
X143875000Y-105828967D01*
X143812168Y-105513088D01*
X143688918Y-105215537D01*
X143509987Y-104947748D01*
X143282252Y-104720013D01*
X143014463Y-104541082D01*
X142716912Y-104417832D01*
X142401033Y-104355000D01*
X142078967Y-104355000D01*
X141763088Y-104417832D01*
X141465537Y-104541082D01*
X141197748Y-104720013D01*
X140970013Y-104947748D01*
X140791082Y-105215537D01*
X140667832Y-105513088D01*
X140605000Y-105828967D01*
X137375000Y-105828967D01*
X137312168Y-105513088D01*
X137188918Y-105215537D01*
X137009987Y-104947748D01*
X136782252Y-104720013D01*
X136514463Y-104541082D01*
X136216912Y-104417832D01*
X135901033Y-104355000D01*
X135578967Y-104355000D01*
X135263088Y-104417832D01*
X134965537Y-104541082D01*
X134697748Y-104720013D01*
X134470013Y-104947748D01*
X134291082Y-105215537D01*
X134167832Y-105513088D01*
X134105000Y-105828967D01*
X132103099Y-105828967D01*
X132112928Y-105805239D01*
X132165000Y-105543456D01*
X132165000Y-105276544D01*
X132112928Y-105014761D01*
X132010785Y-104768167D01*
X131862497Y-104546238D01*
X131673762Y-104357503D01*
X131672736Y-104356818D01*
X131784482Y-104345812D01*
X131904180Y-104309502D01*
X132014494Y-104250537D01*
X132111185Y-104171185D01*
X132190537Y-104074494D01*
X132249502Y-103964180D01*
X132285812Y-103844482D01*
X132298072Y-103720000D01*
X132298072Y-102020000D01*
X132285812Y-101895518D01*
X132249502Y-101775820D01*
X132190537Y-101665506D01*
X132111185Y-101568815D01*
X132014494Y-101489463D01*
X131904180Y-101430498D01*
X131784482Y-101394188D01*
X131660000Y-101381928D01*
X129960000Y-101381928D01*
X129835518Y-101394188D01*
X129715820Y-101430498D01*
X129605506Y-101489463D01*
X129508815Y-101568815D01*
X129429463Y-101665506D01*
X129370498Y-101775820D01*
X129334188Y-101895518D01*
X129323182Y-102007264D01*
X129322497Y-102006238D01*
X129155000Y-101838741D01*
X129155000Y-99103469D01*
X129159281Y-99060000D01*
X129155000Y-99016531D01*
X129155000Y-99016523D01*
X129142195Y-98886510D01*
X129091589Y-98719686D01*
X129009411Y-98565941D01*
X128926532Y-98464953D01*
X128926530Y-98464951D01*
X128898817Y-98431183D01*
X128865050Y-98403471D01*
X127812001Y-97350422D01*
X150569481Y-97350422D01*
X150569481Y-97770980D01*
X150651528Y-98183457D01*
X150812469Y-98572003D01*
X151046118Y-98921684D01*
X151343498Y-99219064D01*
X151693179Y-99452713D01*
X152081725Y-99613654D01*
X152494202Y-99695701D01*
X152914760Y-99695701D01*
X153327237Y-99613654D01*
X153715783Y-99452713D01*
X154065464Y-99219064D01*
X154362844Y-98921684D01*
X154596493Y-98572003D01*
X154757434Y-98183457D01*
X154839481Y-97770980D01*
X154839481Y-97350422D01*
X154757434Y-96937945D01*
X154596493Y-96549399D01*
X154362844Y-96199718D01*
X154065464Y-95902338D01*
X153715783Y-95668689D01*
X153327237Y-95507748D01*
X152914760Y-95425701D01*
X152494202Y-95425701D01*
X152081725Y-95507748D01*
X151693179Y-95668689D01*
X151343498Y-95902338D01*
X151046118Y-96199718D01*
X150812469Y-96549399D01*
X150651528Y-96937945D01*
X150569481Y-97350422D01*
X127812001Y-97350422D01*
X125116534Y-94654956D01*
X125088817Y-94621183D01*
X124954059Y-94510589D01*
X124800313Y-94428411D01*
X124633490Y-94377805D01*
X124503477Y-94365000D01*
X124503469Y-94365000D01*
X124460000Y-94360719D01*
X124416531Y-94365000D01*
X113396579Y-94365000D01*
X90010244Y-70978665D01*
X123025000Y-70978665D01*
X123025000Y-71261335D01*
X123080147Y-71538574D01*
X123188320Y-71799727D01*
X123345363Y-72034759D01*
X123545241Y-72234637D01*
X123780273Y-72391680D01*
X124041426Y-72499853D01*
X124318665Y-72555000D01*
X124601335Y-72555000D01*
X124878574Y-72499853D01*
X125139727Y-72391680D01*
X125374759Y-72234637D01*
X125574637Y-72034759D01*
X125731680Y-71799727D01*
X125839853Y-71538574D01*
X125895000Y-71261335D01*
X125895000Y-70978665D01*
X135725000Y-70978665D01*
X135725000Y-71261335D01*
X135780147Y-71538574D01*
X135888320Y-71799727D01*
X136045363Y-72034759D01*
X136245241Y-72234637D01*
X136480273Y-72391680D01*
X136741426Y-72499853D01*
X137018665Y-72555000D01*
X137301335Y-72555000D01*
X137578574Y-72499853D01*
X137839727Y-72391680D01*
X138074759Y-72234637D01*
X138274637Y-72034759D01*
X138431680Y-71799727D01*
X138539853Y-71538574D01*
X138595000Y-71261335D01*
X138595000Y-70978665D01*
X138539853Y-70701426D01*
X138431680Y-70440273D01*
X138274637Y-70205241D01*
X138074759Y-70005363D01*
X137839727Y-69848320D01*
X137578574Y-69740147D01*
X137301335Y-69685000D01*
X137018665Y-69685000D01*
X136741426Y-69740147D01*
X136480273Y-69848320D01*
X136245241Y-70005363D01*
X136045363Y-70205241D01*
X135888320Y-70440273D01*
X135780147Y-70701426D01*
X135725000Y-70978665D01*
X125895000Y-70978665D01*
X125839853Y-70701426D01*
X125731680Y-70440273D01*
X125574637Y-70205241D01*
X125374759Y-70005363D01*
X125139727Y-69848320D01*
X124878574Y-69740147D01*
X124601335Y-69685000D01*
X124318665Y-69685000D01*
X124041426Y-69740147D01*
X123780273Y-69848320D01*
X123545241Y-70005363D01*
X123345363Y-70205241D01*
X123188320Y-70440273D01*
X123080147Y-70701426D01*
X123025000Y-70978665D01*
X90010244Y-70978665D01*
X89170001Y-70138423D01*
X89170001Y-68219443D01*
X89375662Y-68050662D01*
X89555001Y-67832136D01*
X89734340Y-68050662D01*
X89968075Y-68242482D01*
X90234741Y-68385018D01*
X90524089Y-68472791D01*
X90825001Y-68502428D01*
X91125914Y-68472791D01*
X91415262Y-68385018D01*
X91681928Y-68242482D01*
X91915662Y-68050662D01*
X92095001Y-67832136D01*
X92274340Y-68050662D01*
X92508075Y-68242482D01*
X92774741Y-68385018D01*
X93064089Y-68472791D01*
X93365001Y-68502428D01*
X93665914Y-68472791D01*
X93955262Y-68385018D01*
X94221928Y-68242482D01*
X94455662Y-68050662D01*
X94635001Y-67832136D01*
X94814340Y-68050662D01*
X95048075Y-68242482D01*
X95314741Y-68385018D01*
X95604089Y-68472791D01*
X95905001Y-68502428D01*
X96205914Y-68472791D01*
X96495262Y-68385018D01*
X96761928Y-68242482D01*
X96995662Y-68050662D01*
X97175001Y-67832136D01*
X97354340Y-68050662D01*
X97588075Y-68242482D01*
X97854741Y-68385018D01*
X98144089Y-68472791D01*
X98445001Y-68502428D01*
X98745914Y-68472791D01*
X99035262Y-68385018D01*
X99301928Y-68242482D01*
X99535662Y-68050662D01*
X99715001Y-67832136D01*
X99894340Y-68050662D01*
X100128075Y-68242482D01*
X100394741Y-68385018D01*
X100684089Y-68472791D01*
X100985001Y-68502428D01*
X101285914Y-68472791D01*
X101575262Y-68385018D01*
X101841928Y-68242482D01*
X102075662Y-68050662D01*
X102255001Y-67832136D01*
X102434340Y-68050662D01*
X102668075Y-68242482D01*
X102934741Y-68385018D01*
X103224089Y-68472791D01*
X103525001Y-68502428D01*
X103825914Y-68472791D01*
X104115262Y-68385018D01*
X104381928Y-68242482D01*
X104615662Y-68050662D01*
X104795001Y-67832136D01*
X104974340Y-68050662D01*
X105208075Y-68242482D01*
X105474741Y-68385018D01*
X105764089Y-68472791D01*
X106065001Y-68502428D01*
X106365914Y-68472791D01*
X106655262Y-68385018D01*
X106921928Y-68242482D01*
X107155662Y-68050662D01*
X107335001Y-67832136D01*
X107514340Y-68050662D01*
X107748075Y-68242482D01*
X108014741Y-68385018D01*
X108304089Y-68472791D01*
X108605001Y-68502428D01*
X108905914Y-68472791D01*
X109195262Y-68385018D01*
X109461928Y-68242482D01*
X109695662Y-68050662D01*
X109875001Y-67832136D01*
X110054340Y-68050662D01*
X110288075Y-68242482D01*
X110554741Y-68385018D01*
X110844089Y-68472791D01*
X111145001Y-68502428D01*
X111445914Y-68472791D01*
X111735262Y-68385018D01*
X112001928Y-68242482D01*
X112235662Y-68050662D01*
X112415001Y-67832136D01*
X112594340Y-68050662D01*
X112828075Y-68242482D01*
X113094741Y-68385018D01*
X113384089Y-68472791D01*
X113685001Y-68502428D01*
X113985914Y-68472791D01*
X114275262Y-68385018D01*
X114541928Y-68242482D01*
X114775662Y-68050662D01*
X114955001Y-67832136D01*
X115134340Y-68050662D01*
X115368075Y-68242482D01*
X115634741Y-68385018D01*
X115924089Y-68472791D01*
X116225001Y-68502428D01*
X116525914Y-68472791D01*
X116815262Y-68385018D01*
X117081928Y-68242482D01*
X117315662Y-68050662D01*
X117499782Y-67826310D01*
X117559253Y-67918397D01*
X117769395Y-68135211D01*
X118017797Y-68306863D01*
X118294914Y-68426756D01*
X118400261Y-68451037D01*
X118638001Y-68330379D01*
X118638001Y-66687001D01*
X118618001Y-66687001D01*
X118618001Y-66433001D01*
X118638001Y-66433001D01*
X118638001Y-64789623D01*
X118892001Y-64789623D01*
X118892001Y-66433001D01*
X118912001Y-66433001D01*
X118912001Y-66687001D01*
X118892001Y-66687001D01*
X118892001Y-68330379D01*
X119129741Y-68451037D01*
X119235088Y-68426756D01*
X119512205Y-68306863D01*
X119760607Y-68135211D01*
X119970749Y-67918397D01*
X120030220Y-67826310D01*
X120214340Y-68050662D01*
X120448075Y-68242482D01*
X120714741Y-68385018D01*
X121004089Y-68472791D01*
X121305001Y-68502428D01*
X121605914Y-68472791D01*
X121895262Y-68385018D01*
X122161928Y-68242482D01*
X122395662Y-68050662D01*
X122587482Y-67816928D01*
X122730018Y-67550262D01*
X122817791Y-67260914D01*
X122840001Y-67035408D01*
X122840001Y-66349722D01*
X150570001Y-66349722D01*
X150570001Y-66770280D01*
X150652048Y-67182757D01*
X150812989Y-67571303D01*
X151046638Y-67920984D01*
X151344018Y-68218364D01*
X151693699Y-68452013D01*
X152082245Y-68612954D01*
X152494722Y-68695001D01*
X152915280Y-68695001D01*
X153327757Y-68612954D01*
X153716303Y-68452013D01*
X154065984Y-68218364D01*
X154363364Y-67920984D01*
X154597013Y-67571303D01*
X154757954Y-67182757D01*
X154840001Y-66770280D01*
X154840001Y-66349722D01*
X154757954Y-65937245D01*
X154597013Y-65548699D01*
X154363364Y-65199018D01*
X154065984Y-64901638D01*
X153716303Y-64667989D01*
X153327757Y-64507048D01*
X152915280Y-64425001D01*
X152494722Y-64425001D01*
X152082245Y-64507048D01*
X151693699Y-64667989D01*
X151344018Y-64901638D01*
X151046638Y-65199018D01*
X150812989Y-65548699D01*
X150652048Y-65937245D01*
X150570001Y-66349722D01*
X122840001Y-66349722D01*
X122840001Y-66084593D01*
X122817791Y-65859088D01*
X122730018Y-65569740D01*
X122587482Y-65303074D01*
X122395662Y-65069340D01*
X122161927Y-64877520D01*
X121895261Y-64734984D01*
X121605913Y-64647211D01*
X121305001Y-64617574D01*
X121004088Y-64647211D01*
X120714740Y-64734984D01*
X120448074Y-64877520D01*
X120214340Y-65069340D01*
X120030220Y-65293693D01*
X119970749Y-65201605D01*
X119760607Y-64984791D01*
X119512205Y-64813139D01*
X119235088Y-64693246D01*
X119129741Y-64668965D01*
X118892001Y-64789623D01*
X118638001Y-64789623D01*
X118400261Y-64668965D01*
X118294914Y-64693246D01*
X118017797Y-64813139D01*
X117769395Y-64984791D01*
X117559253Y-65201605D01*
X117499782Y-65293692D01*
X117315662Y-65069340D01*
X117081927Y-64877520D01*
X116815261Y-64734984D01*
X116525913Y-64647211D01*
X116225001Y-64617574D01*
X115924088Y-64647211D01*
X115634740Y-64734984D01*
X115368074Y-64877520D01*
X115134340Y-65069340D01*
X114955001Y-65287866D01*
X114775662Y-65069340D01*
X114541927Y-64877520D01*
X114275261Y-64734984D01*
X113985913Y-64647211D01*
X113685001Y-64617574D01*
X113384088Y-64647211D01*
X113094740Y-64734984D01*
X112828074Y-64877520D01*
X112594340Y-65069340D01*
X112415001Y-65287866D01*
X112235662Y-65069340D01*
X112001927Y-64877520D01*
X111735261Y-64734984D01*
X111445913Y-64647211D01*
X111145001Y-64617574D01*
X110844088Y-64647211D01*
X110554740Y-64734984D01*
X110288074Y-64877520D01*
X110054340Y-65069340D01*
X109875001Y-65287866D01*
X109695662Y-65069340D01*
X109461927Y-64877520D01*
X109195261Y-64734984D01*
X108905913Y-64647211D01*
X108605001Y-64617574D01*
X108304088Y-64647211D01*
X108014740Y-64734984D01*
X107748074Y-64877520D01*
X107514340Y-65069340D01*
X107335001Y-65287866D01*
X107155662Y-65069340D01*
X106921927Y-64877520D01*
X106655261Y-64734984D01*
X106365913Y-64647211D01*
X106065001Y-64617574D01*
X105764088Y-64647211D01*
X105474740Y-64734984D01*
X105208074Y-64877520D01*
X104974340Y-65069340D01*
X104795001Y-65287866D01*
X104615662Y-65069340D01*
X104381927Y-64877520D01*
X104115261Y-64734984D01*
X103825913Y-64647211D01*
X103525001Y-64617574D01*
X103224088Y-64647211D01*
X102934740Y-64734984D01*
X102668074Y-64877520D01*
X102434340Y-65069340D01*
X102255001Y-65287866D01*
X102075662Y-65069340D01*
X101841927Y-64877520D01*
X101575261Y-64734984D01*
X101285913Y-64647211D01*
X100985001Y-64617574D01*
X100684088Y-64647211D01*
X100394740Y-64734984D01*
X100128074Y-64877520D01*
X99894340Y-65069340D01*
X99715001Y-65287866D01*
X99535662Y-65069340D01*
X99301927Y-64877520D01*
X99035261Y-64734984D01*
X98745913Y-64647211D01*
X98445001Y-64617574D01*
X98144088Y-64647211D01*
X97854740Y-64734984D01*
X97588074Y-64877520D01*
X97354340Y-65069340D01*
X97175001Y-65287866D01*
X96995662Y-65069340D01*
X96761927Y-64877520D01*
X96495261Y-64734984D01*
X96205913Y-64647211D01*
X95905001Y-64617574D01*
X95604088Y-64647211D01*
X95314740Y-64734984D01*
X95048074Y-64877520D01*
X94814340Y-65069340D01*
X94635001Y-65287866D01*
X94455662Y-65069340D01*
X94221927Y-64877520D01*
X93955261Y-64734984D01*
X93665913Y-64647211D01*
X93365001Y-64617574D01*
X93064088Y-64647211D01*
X92774740Y-64734984D01*
X92508074Y-64877520D01*
X92274340Y-65069340D01*
X92095001Y-65287866D01*
X91915662Y-65069340D01*
X91681927Y-64877520D01*
X91415261Y-64734984D01*
X91125913Y-64647211D01*
X90825001Y-64617574D01*
X90524088Y-64647211D01*
X90234740Y-64734984D01*
X89968074Y-64877520D01*
X89734340Y-65069340D01*
X89555001Y-65287866D01*
X89375662Y-65069340D01*
X89141927Y-64877520D01*
X88875261Y-64734984D01*
X88585913Y-64647211D01*
X88285001Y-64617574D01*
X87984088Y-64647211D01*
X87694740Y-64734984D01*
X87428074Y-64877520D01*
X87194340Y-65069340D01*
X87010220Y-65293693D01*
X86950749Y-65201605D01*
X86740607Y-64984791D01*
X86492205Y-64813139D01*
X86215088Y-64693246D01*
X86109741Y-64668965D01*
X85872001Y-64789623D01*
X85618001Y-64789623D01*
X85380261Y-64668965D01*
X85274914Y-64693246D01*
X84997797Y-64813139D01*
X84749395Y-64984791D01*
X84700419Y-65035322D01*
X84694503Y-65015821D01*
X84635538Y-64905507D01*
X84556186Y-64808816D01*
X84459495Y-64729464D01*
X84349181Y-64670499D01*
X84229483Y-64634189D01*
X84105001Y-64621929D01*
X82305001Y-64621929D01*
X82180519Y-64634189D01*
X82060821Y-64670499D01*
X81950507Y-64729464D01*
X81853816Y-64808816D01*
X81774464Y-64905507D01*
X81715499Y-65015821D01*
X81679189Y-65135519D01*
X81666929Y-65260001D01*
X79405012Y-65260001D01*
X79364264Y-65199018D01*
X79066884Y-64901638D01*
X78717203Y-64667989D01*
X78328657Y-64507048D01*
X77916180Y-64425001D01*
X77495622Y-64425001D01*
X77083145Y-64507048D01*
X76694599Y-64667989D01*
X76344918Y-64901638D01*
X76047538Y-65199018D01*
X75813889Y-65548699D01*
X75652948Y-65937245D01*
X75570901Y-66349722D01*
X74320000Y-66349722D01*
X74320000Y-63532279D01*
X74334722Y-63382131D01*
X74368953Y-63268754D01*
X74424555Y-63164181D01*
X74499407Y-63072404D01*
X74590664Y-62996909D01*
X74694844Y-62940581D01*
X74807976Y-62905560D01*
X74956022Y-62890000D01*
X154907721Y-62890000D01*
X155057869Y-62904722D01*
G37*
%TD.AperFunction*%
%TD*%
M02*
